<svg width="118" height="49" viewBox="0 0 118 49" fill="none" xmlns="http://www.w3.org/2000/svg">
<path d="M37 0.5C37 0.776142 36.7761 1 36.5 1C36.2239 1 36 0.776142 36 0.5C36 0.223858 36.2239 0 36.5 0C36.7761 0 37 0.223858 37 0.5Z" fill="#35FEE0"/>
<path d="M43 0.5C43 0.776142 42.7761 1 42.5 1C42.2239 1 42 0.776142 42 0.5C42 0.223858 42.2239 0 42.5 0C42.7761 0 43 0.223858 43 0.5Z" fill="#35FEE0"/>
<path d="M49 0.5C49 0.776142 48.7761 1 48.5 1C48.2239 1 48 0.776142 48 0.5C48 0.223858 48.2239 0 48.5 0C48.7761 0 49 0.223858 49 0.5Z" fill="#35FEE0"/>
<path d="M55 0.5C55 0.776142 54.7761 1 54.5 1C54.2239 1 54 0.776142 54 0.5C54 0.223858 54.2239 0 54.5 0C54.7761 0 55 0.223858 55 0.5Z" fill="#35FEE0"/>
<path d="M31 0.5C31 0.776142 30.7761 1 30.5 1C30.2239 1 30 0.776142 30 0.5C30 0.223858 30.2239 0 30.5 0C30.7761 0 31 0.223858 31 0.5Z" fill="#35FEE0"/>
<path d="M25 0.5C25 0.776142 24.7761 1 24.5 1C24.2239 1 24 0.776142 24 0.5C24 0.223858 24.2239 0 24.5 0C24.7761 0 25 0.223858 25 0.5Z" fill="#35FEE0"/>
<path d="M19 0.5C19 0.776142 18.7761 1 18.5 1C18.2239 1 18 0.776142 18 0.5C18 0.223858 18.2239 0 18.5 0C18.7761 0 19 0.223858 19 0.5Z" fill="#35FEE0"/>
<path d="M13 0.5C13 0.776142 12.7761 1 12.5 1C12.2239 1 12 0.776142 12 0.5C12 0.223858 12.2239 0 12.5 0C12.7761 0 13 0.223858 13 0.5Z" fill="#35FEE0"/>
<path d="M7 0.5C7 0.776142 6.77614 1 6.5 1C6.22386 1 6 0.776142 6 0.5C6 0.223858 6.22386 0 6.5 0C6.77614 0 7 0.223858 7 0.5Z" fill="#35FEE0"/>
<path d="M1 0.5C1 0.776142 0.776142 1 0.5 1C0.223858 1 0 0.776142 0 0.5C0 0.223858 0.223858 0 0.5 0C0.776142 0 1 0.223858 1 0.5Z" fill="#35FEE0"/>
<path d="M37 6.5C37 6.77614 36.7761 7 36.5 7C36.2239 7 36 6.77614 36 6.5C36 6.22386 36.2239 6 36.5 6C36.7761 6 37 6.22386 37 6.5Z" fill="#35FEE0"/>
<path d="M43 6.5C43 6.77614 42.7761 7 42.5 7C42.2239 7 42 6.77614 42 6.5C42 6.22386 42.2239 6 42.5 6C42.7761 6 43 6.22386 43 6.5Z" fill="#35FEE0"/>
<path d="M49 6.5C49 6.77614 48.7761 7 48.5 7C48.2239 7 48 6.77614 48 6.5C48 6.22386 48.2239 6 48.5 6C48.7761 6 49 6.22386 49 6.5Z" fill="#35FEE0"/>
<path d="M55 6.5C55 6.77614 54.7761 7 54.5 7C54.2239 7 54 6.77614 54 6.5C54 6.22386 54.2239 6 54.5 6C54.7761 6 55 6.22386 55 6.5Z" fill="#35FEE0"/>
<path d="M31 6.5C31 6.77614 30.7761 7 30.5 7C30.2239 7 30 6.77614 30 6.5C30 6.22386 30.2239 6 30.5 6C30.7761 6 31 6.22386 31 6.5Z" fill="#35FEE0"/>
<path d="M25 6.5C25 6.77614 24.7761 7 24.5 7C24.2239 7 24 6.77614 24 6.5C24 6.22386 24.2239 6 24.5 6C24.7761 6 25 6.22386 25 6.5Z" fill="#35FEE0"/>
<path d="M19 6.5C19 6.77614 18.7761 7 18.5 7C18.2239 7 18 6.77614 18 6.5C18 6.22386 18.2239 6 18.5 6C18.7761 6 19 6.22386 19 6.5Z" fill="#35FEE0"/>
<path d="M13 6.5C13 6.77614 12.7761 7 12.5 7C12.2239 7 12 6.77614 12 6.5C12 6.22386 12.2239 6 12.5 6C12.7761 6 13 6.22386 13 6.5Z" fill="#35FEE0"/>
<path d="M7 6.5C7 6.77614 6.77614 7 6.5 7C6.22386 7 6 6.77614 6 6.5C6 6.22386 6.22386 6 6.5 6C6.77614 6 7 6.22386 7 6.5Z" fill="#35FEE0"/>
<path d="M1 6.5C1 6.77614 0.776142 7 0.5 7C0.223858 7 0 6.77614 0 6.5C0 6.22386 0.223858 6 0.5 6C0.776142 6 1 6.22386 1 6.5Z" fill="#35FEE0"/>
<path d="M40 3.5C40 3.77614 39.7761 4 39.5 4C39.2239 4 39 3.77614 39 3.5C39 3.22386 39.2239 3 39.5 3C39.7761 3 40 3.22386 40 3.5Z" fill="#35FEE0"/>
<path d="M46 3.5C46 3.77614 45.7761 4 45.5 4C45.2239 4 45 3.77614 45 3.5C45 3.22386 45.2239 3 45.5 3C45.7761 3 46 3.22386 46 3.5Z" fill="#35FEE0"/>
<path d="M52 3.5C52 3.77614 51.7761 4 51.5 4C51.2239 4 51 3.77614 51 3.5C51 3.22386 51.2239 3 51.5 3C51.7761 3 52 3.22386 52 3.5Z" fill="#35FEE0"/>
<path d="M58 3.5C58 3.77614 57.7761 4 57.5 4C57.2239 4 57 3.77614 57 3.5C57 3.22386 57.2239 3 57.5 3C57.7761 3 58 3.22386 58 3.5Z" fill="#35FEE0"/>
<path d="M34 3.5C34 3.77614 33.7761 4 33.5 4C33.2239 4 33 3.77614 33 3.5C33 3.22386 33.2239 3 33.5 3C33.7761 3 34 3.22386 34 3.5Z" fill="#35FEE0"/>
<path d="M28 3.5C28 3.77614 27.7761 4 27.5 4C27.2239 4 27 3.77614 27 3.5C27 3.22386 27.2239 3 27.5 3C27.7761 3 28 3.22386 28 3.5Z" fill="#35FEE0"/>
<path d="M22 3.5C22 3.77614 21.7761 4 21.5 4C21.2239 4 21 3.77614 21 3.5C21 3.22386 21.2239 3 21.5 3C21.7761 3 22 3.22386 22 3.5Z" fill="#35FEE0"/>
<path d="M16 3.5C16 3.77614 15.7761 4 15.5 4C15.2239 4 15 3.77614 15 3.5C15 3.22386 15.2239 3 15.5 3C15.7761 3 16 3.22386 16 3.5Z" fill="#35FEE0"/>
<path d="M10 3.5C10 3.77614 9.77614 4 9.5 4C9.22386 4 9 3.77614 9 3.5C9 3.22386 9.22386 3 9.5 3C9.77614 3 10 3.22386 10 3.5Z" fill="#35FEE0"/>
<path d="M4 3.5C4 3.77614 3.77614 4 3.5 4C3.22386 4 3 3.77614 3 3.5C3 3.22386 3.22386 3 3.5 3C3.77614 3 4 3.22386 4 3.5Z" fill="#35FEE0"/>
<path d="M40 9.5C40 9.77614 39.7761 10 39.5 10C39.2239 10 39 9.77614 39 9.5C39 9.22386 39.2239 9 39.5 9C39.7761 9 40 9.22386 40 9.5Z" fill="#35FEE0"/>
<path d="M46 9.5C46 9.77614 45.7761 10 45.5 10C45.2239 10 45 9.77614 45 9.5C45 9.22386 45.2239 9 45.5 9C45.7761 9 46 9.22386 46 9.5Z" fill="#35FEE0"/>
<path d="M52 9.5C52 9.77614 51.7761 10 51.5 10C51.2239 10 51 9.77614 51 9.5C51 9.22386 51.2239 9 51.5 9C51.7761 9 52 9.22386 52 9.5Z" fill="#35FEE0"/>
<path d="M58 9.5C58 9.77614 57.7761 10 57.5 10C57.2239 10 57 9.77614 57 9.5C57 9.22386 57.2239 9 57.5 9C57.7761 9 58 9.22386 58 9.5Z" fill="#35FEE0"/>
<path d="M34 9.5C34 9.77614 33.7761 10 33.5 10C33.2239 10 33 9.77614 33 9.5C33 9.22386 33.2239 9 33.5 9C33.7761 9 34 9.22386 34 9.5Z" fill="#35FEE0"/>
<path d="M28 9.5C28 9.77614 27.7761 10 27.5 10C27.2239 10 27 9.77614 27 9.5C27 9.22386 27.2239 9 27.5 9C27.7761 9 28 9.22386 28 9.5Z" fill="#35FEE0"/>
<path d="M22 9.5C22 9.77614 21.7761 10 21.5 10C21.2239 10 21 9.77614 21 9.5C21 9.22386 21.2239 9 21.5 9C21.7761 9 22 9.22386 22 9.5Z" fill="#35FEE0"/>
<path d="M16 9.5C16 9.77614 15.7761 10 15.5 10C15.2239 10 15 9.77614 15 9.5C15 9.22386 15.2239 9 15.5 9C15.7761 9 16 9.22386 16 9.5Z" fill="#35FEE0"/>
<path d="M10 9.5C10 9.77614 9.77614 10 9.5 10C9.22386 10 9 9.77614 9 9.5C9 9.22386 9.22386 9 9.5 9C9.77614 9 10 9.22386 10 9.5Z" fill="#35FEE0"/>
<path d="M4 9.5C4 9.77614 3.77614 10 3.5 10C3.22386 10 3 9.77614 3 9.5C3 9.22386 3.22386 9 3.5 9C3.77614 9 4 9.22386 4 9.5Z" fill="#35FEE0"/>
<path d="M40 15.5C40 15.7761 39.7761 16 39.5 16C39.2239 16 39 15.7761 39 15.5C39 15.2239 39.2239 15 39.5 15C39.7761 15 40 15.2239 40 15.5Z" fill="#35FEE0"/>
<path d="M46 15.5C46 15.7761 45.7761 16 45.5 16C45.2239 16 45 15.7761 45 15.5C45 15.2239 45.2239 15 45.5 15C45.7761 15 46 15.2239 46 15.5Z" fill="#35FEE0"/>
<path d="M52 15.5C52 15.7761 51.7761 16 51.5 16C51.2239 16 51 15.7761 51 15.5C51 15.2239 51.2239 15 51.5 15C51.7761 15 52 15.2239 52 15.5Z" fill="#35FEE0"/>
<path d="M58 15.5C58 15.7761 57.7761 16 57.5 16C57.2239 16 57 15.7761 57 15.5C57 15.2239 57.2239 15 57.5 15C57.7761 15 58 15.2239 58 15.5Z" fill="#35FEE0"/>
<path d="M34 15.5C34 15.7761 33.7761 16 33.5 16C33.2239 16 33 15.7761 33 15.5C33 15.2239 33.2239 15 33.5 15C33.7761 15 34 15.2239 34 15.5Z" fill="#35FEE0"/>
<path d="M28 15.5C28 15.7761 27.7761 16 27.5 16C27.2239 16 27 15.7761 27 15.5C27 15.2239 27.2239 15 27.5 15C27.7761 15 28 15.2239 28 15.5Z" fill="#35FEE0"/>
<path d="M22 15.5C22 15.7761 21.7761 16 21.5 16C21.2239 16 21 15.7761 21 15.5C21 15.2239 21.2239 15 21.5 15C21.7761 15 22 15.2239 22 15.5Z" fill="#35FEE0"/>
<path d="M16 15.5C16 15.7761 15.7761 16 15.5 16C15.2239 16 15 15.7761 15 15.5C15 15.2239 15.2239 15 15.5 15C15.7761 15 16 15.2239 16 15.5Z" fill="#35FEE0"/>
<path d="M10 15.5C10 15.7761 9.77614 16 9.5 16C9.22386 16 9 15.7761 9 15.5C9 15.2239 9.22386 15 9.5 15C9.77614 15 10 15.2239 10 15.5Z" fill="#35FEE0"/>
<path d="M4 15.5C4 15.7761 3.77614 16 3.5 16C3.22386 16 3 15.7761 3 15.5C3 15.2239 3.22386 15 3.5 15C3.77614 15 4 15.2239 4 15.5Z" fill="#35FEE0"/>
<path d="M40 21.5C40 21.7761 39.7761 22 39.5 22C39.2239 22 39 21.7761 39 21.5C39 21.2239 39.2239 21 39.5 21C39.7761 21 40 21.2239 40 21.5Z" fill="#35FEE0"/>
<path d="M46 21.5C46 21.7761 45.7761 22 45.5 22C45.2239 22 45 21.7761 45 21.5C45 21.2239 45.2239 21 45.5 21C45.7761 21 46 21.2239 46 21.5Z" fill="#35FEE0"/>
<path d="M52 21.5C52 21.7761 51.7761 22 51.5 22C51.2239 22 51 21.7761 51 21.5C51 21.2239 51.2239 21 51.5 21C51.7761 21 52 21.2239 52 21.5Z" fill="#35FEE0"/>
<path d="M58 21.5C58 21.7761 57.7761 22 57.5 22C57.2239 22 57 21.7761 57 21.5C57 21.2239 57.2239 21 57.5 21C57.7761 21 58 21.2239 58 21.5Z" fill="#35FEE0"/>
<path d="M34 21.5C34 21.7761 33.7761 22 33.5 22C33.2239 22 33 21.7761 33 21.5C33 21.2239 33.2239 21 33.5 21C33.7761 21 34 21.2239 34 21.5Z" fill="#35FEE0"/>
<path d="M28 21.5C28 21.7761 27.7761 22 27.5 22C27.2239 22 27 21.7761 27 21.5C27 21.2239 27.2239 21 27.5 21C27.7761 21 28 21.2239 28 21.5Z" fill="#35FEE0"/>
<path d="M22 21.5C22 21.7761 21.7761 22 21.5 22C21.2239 22 21 21.7761 21 21.5C21 21.2239 21.2239 21 21.5 21C21.7761 21 22 21.2239 22 21.5Z" fill="#35FEE0"/>
<path d="M16 21.5C16 21.7761 15.7761 22 15.5 22C15.2239 22 15 21.7761 15 21.5C15 21.2239 15.2239 21 15.5 21C15.7761 21 16 21.2239 16 21.5Z" fill="#35FEE0"/>
<path d="M10 21.5C10 21.7761 9.77614 22 9.5 22C9.22386 22 9 21.7761 9 21.5C9 21.2239 9.22386 21 9.5 21C9.77614 21 10 21.2239 10 21.5Z" fill="#35FEE0"/>
<path d="M4 21.5C4 21.7761 3.77614 22 3.5 22C3.22386 22 3 21.7761 3 21.5C3 21.2239 3.22386 21 3.5 21C3.77614 21 4 21.2239 4 21.5Z" fill="#35FEE0"/>
<path d="M37 12.5C37 12.7761 36.7761 13 36.5 13C36.2239 13 36 12.7761 36 12.5C36 12.2239 36.2239 12 36.5 12C36.7761 12 37 12.2239 37 12.5Z" fill="#35FEE0"/>
<path d="M43 12.5C43 12.7761 42.7761 13 42.5 13C42.2239 13 42 12.7761 42 12.5C42 12.2239 42.2239 12 42.5 12C42.7761 12 43 12.2239 43 12.5Z" fill="#35FEE0"/>
<path d="M49 12.5C49 12.7761 48.7761 13 48.5 13C48.2239 13 48 12.7761 48 12.5C48 12.2239 48.2239 12 48.5 12C48.7761 12 49 12.2239 49 12.5Z" fill="#35FEE0"/>
<path d="M55 12.5C55 12.7761 54.7761 13 54.5 13C54.2239 13 54 12.7761 54 12.5C54 12.2239 54.2239 12 54.5 12C54.7761 12 55 12.2239 55 12.5Z" fill="#35FEE0"/>
<path d="M31 12.5C31 12.7761 30.7761 13 30.5 13C30.2239 13 30 12.7761 30 12.5C30 12.2239 30.2239 12 30.5 12C30.7761 12 31 12.2239 31 12.5Z" fill="#35FEE0"/>
<path d="M25 12.5C25 12.7761 24.7761 13 24.5 13C24.2239 13 24 12.7761 24 12.5C24 12.2239 24.2239 12 24.5 12C24.7761 12 25 12.2239 25 12.5Z" fill="#35FEE0"/>
<path d="M19 12.5C19 12.7761 18.7761 13 18.5 13C18.2239 13 18 12.7761 18 12.5C18 12.2239 18.2239 12 18.5 12C18.7761 12 19 12.2239 19 12.5Z" fill="#35FEE0"/>
<path d="M13 12.5C13 12.7761 12.7761 13 12.5 13C12.2239 13 12 12.7761 12 12.5C12 12.2239 12.2239 12 12.5 12C12.7761 12 13 12.2239 13 12.5Z" fill="#35FEE0"/>
<path d="M7 12.5C7 12.7761 6.77614 13 6.5 13C6.22386 13 6 12.7761 6 12.5C6 12.2239 6.22386 12 6.5 12C6.77614 12 7 12.2239 7 12.5Z" fill="#35FEE0"/>
<path d="M1 12.5C1 12.7761 0.776142 13 0.5 13C0.223858 13 0 12.7761 0 12.5C0 12.2239 0.223858 12 0.5 12C0.776142 12 1 12.2239 1 12.5Z" fill="#35FEE0"/>
<path d="M37 18.5C37 18.7761 36.7761 19 36.5 19C36.2239 19 36 18.7761 36 18.5C36 18.2239 36.2239 18 36.5 18C36.7761 18 37 18.2239 37 18.5Z" fill="#35FEE0"/>
<path d="M43 18.5C43 18.7761 42.7761 19 42.5 19C42.2239 19 42 18.7761 42 18.5C42 18.2239 42.2239 18 42.5 18C42.7761 18 43 18.2239 43 18.5Z" fill="#35FEE0"/>
<path d="M49 18.5C49 18.7761 48.7761 19 48.5 19C48.2239 19 48 18.7761 48 18.5C48 18.2239 48.2239 18 48.5 18C48.7761 18 49 18.2239 49 18.5Z" fill="#35FEE0"/>
<path d="M55 18.5C55 18.7761 54.7761 19 54.5 19C54.2239 19 54 18.7761 54 18.5C54 18.2239 54.2239 18 54.5 18C54.7761 18 55 18.2239 55 18.5Z" fill="#35FEE0"/>
<path d="M31 18.5C31 18.7761 30.7761 19 30.5 19C30.2239 19 30 18.7761 30 18.5C30 18.2239 30.2239 18 30.5 18C30.7761 18 31 18.2239 31 18.5Z" fill="#35FEE0"/>
<path d="M25 18.5C25 18.7761 24.7761 19 24.5 19C24.2239 19 24 18.7761 24 18.5C24 18.2239 24.2239 18 24.5 18C24.7761 18 25 18.2239 25 18.5Z" fill="#35FEE0"/>
<path d="M19 18.5C19 18.7761 18.7761 19 18.5 19C18.2239 19 18 18.7761 18 18.5C18 18.2239 18.2239 18 18.5 18C18.7761 18 19 18.2239 19 18.5Z" fill="#35FEE0"/>
<path d="M13 18.5C13 18.7761 12.7761 19 12.5 19C12.2239 19 12 18.7761 12 18.5C12 18.2239 12.2239 18 12.5 18C12.7761 18 13 18.2239 13 18.5Z" fill="#35FEE0"/>
<path d="M7 18.5C7 18.7761 6.77614 19 6.5 19C6.22386 19 6 18.7761 6 18.5C6 18.2239 6.22386 18 6.5 18C6.77614 18 7 18.2239 7 18.5Z" fill="#35FEE0"/>
<path d="M1 18.5C1 18.7761 0.776142 19 0.5 19C0.223858 19 0 18.7761 0 18.5C0 18.2239 0.223858 18 0.5 18C0.776142 18 1 18.2239 1 18.5Z" fill="#35FEE0"/>
<path d="M37 24.5C37 24.7761 36.7761 25 36.5 25C36.2239 25 36 24.7761 36 24.5C36 24.2239 36.2239 24 36.5 24C36.7761 24 37 24.2239 37 24.5Z" fill="#35FEE0"/>
<path d="M43 24.5C43 24.7761 42.7761 25 42.5 25C42.2239 25 42 24.7761 42 24.5C42 24.2239 42.2239 24 42.5 24C42.7761 24 43 24.2239 43 24.5Z" fill="#35FEE0"/>
<path d="M49 24.5C49 24.7761 48.7761 25 48.5 25C48.2239 25 48 24.7761 48 24.5C48 24.2239 48.2239 24 48.5 24C48.7761 24 49 24.2239 49 24.5Z" fill="#35FEE0"/>
<path d="M55 24.5C55 24.7761 54.7761 25 54.5 25C54.2239 25 54 24.7761 54 24.5C54 24.2239 54.2239 24 54.5 24C54.7761 24 55 24.2239 55 24.5Z" fill="#35FEE0"/>
<path d="M31 24.5C31 24.7761 30.7761 25 30.5 25C30.2239 25 30 24.7761 30 24.5C30 24.2239 30.2239 24 30.5 24C30.7761 24 31 24.2239 31 24.5Z" fill="#35FEE0"/>
<path d="M25 24.5C25 24.7761 24.7761 25 24.5 25C24.2239 25 24 24.7761 24 24.5C24 24.2239 24.2239 24 24.5 24C24.7761 24 25 24.2239 25 24.5Z" fill="#35FEE0"/>
<path d="M19 24.5C19 24.7761 18.7761 25 18.5 25C18.2239 25 18 24.7761 18 24.5C18 24.2239 18.2239 24 18.5 24C18.7761 24 19 24.2239 19 24.5Z" fill="#35FEE0"/>
<path d="M13 24.5C13 24.7761 12.7761 25 12.5 25C12.2239 25 12 24.7761 12 24.5C12 24.2239 12.2239 24 12.5 24C12.7761 24 13 24.2239 13 24.5Z" fill="#35FEE0"/>
<path d="M7 24.5C7 24.7761 6.77614 25 6.5 25C6.22386 25 6 24.7761 6 24.5C6 24.2239 6.22386 24 6.5 24C6.77614 24 7 24.2239 7 24.5Z" fill="#35FEE0"/>
<path d="M1 24.5C1 24.7761 0.776142 25 0.5 25C0.223858 25 0 24.7761 0 24.5C0 24.2239 0.223858 24 0.5 24C0.776142 24 1 24.2239 1 24.5Z" fill="#35FEE0"/>
<path d="M97 0.5C97 0.776142 96.7761 1 96.5 1C96.2239 1 96 0.776142 96 0.5C96 0.223858 96.2239 0 96.5 0C96.7761 0 97 0.223858 97 0.5Z" fill="#35FEE0"/>
<path d="M103 0.5C103 0.776142 102.776 1 102.5 1C102.224 1 102 0.776142 102 0.5C102 0.223858 102.224 0 102.5 0C102.776 0 103 0.223858 103 0.5Z" fill="#35FEE0"/>
<path d="M109 0.5C109 0.776142 108.776 1 108.5 1C108.224 1 108 0.776142 108 0.5C108 0.223858 108.224 0 108.5 0C108.776 0 109 0.223858 109 0.5Z" fill="#35FEE0"/>
<path d="M115 0.5C115 0.776142 114.776 1 114.5 1C114.224 1 114 0.776142 114 0.5C114 0.223858 114.224 0 114.5 0C114.776 0 115 0.223858 115 0.5Z" fill="#35FEE0"/>
<path d="M91 0.5C91 0.776142 90.7761 1 90.5 1C90.2239 1 90 0.776142 90 0.5C90 0.223858 90.2239 0 90.5 0C90.7761 0 91 0.223858 91 0.5Z" fill="#35FEE0"/>
<path d="M85 0.5C85 0.776142 84.7761 1 84.5 1C84.2239 1 84 0.776142 84 0.5C84 0.223858 84.2239 0 84.5 0C84.7761 0 85 0.223858 85 0.5Z" fill="#35FEE0"/>
<path d="M79 0.5C79 0.776142 78.7761 1 78.5 1C78.2239 1 78 0.776142 78 0.5C78 0.223858 78.2239 0 78.5 0C78.7761 0 79 0.223858 79 0.5Z" fill="#35FEE0"/>
<path d="M73 0.5C73 0.776142 72.7761 1 72.5 1C72.2239 1 72 0.776142 72 0.5C72 0.223858 72.2239 0 72.5 0C72.7761 0 73 0.223858 73 0.5Z" fill="#35FEE0"/>
<path d="M67 0.5C67 0.776142 66.7761 1 66.5 1C66.2239 1 66 0.776142 66 0.5C66 0.223858 66.2239 0 66.5 0C66.7761 0 67 0.223858 67 0.5Z" fill="#35FEE0"/>
<path d="M61 0.5C61 0.776142 60.7761 1 60.5 1C60.2239 1 60 0.776142 60 0.5C60 0.223858 60.2239 0 60.5 0C60.7761 0 61 0.223858 61 0.5Z" fill="#35FEE0"/>
<path d="M97 6.5C97 6.77614 96.7761 7 96.5 7C96.2239 7 96 6.77614 96 6.5C96 6.22386 96.2239 6 96.5 6C96.7761 6 97 6.22386 97 6.5Z" fill="#35FEE0"/>
<path d="M103 6.5C103 6.77614 102.776 7 102.5 7C102.224 7 102 6.77614 102 6.5C102 6.22386 102.224 6 102.5 6C102.776 6 103 6.22386 103 6.5Z" fill="#35FEE0"/>
<path d="M109 6.5C109 6.77614 108.776 7 108.5 7C108.224 7 108 6.77614 108 6.5C108 6.22386 108.224 6 108.5 6C108.776 6 109 6.22386 109 6.5Z" fill="#35FEE0"/>
<path d="M115 6.5C115 6.77614 114.776 7 114.5 7C114.224 7 114 6.77614 114 6.5C114 6.22386 114.224 6 114.5 6C114.776 6 115 6.22386 115 6.5Z" fill="#35FEE0"/>
<path d="M91 6.5C91 6.77614 90.7761 7 90.5 7C90.2239 7 90 6.77614 90 6.5C90 6.22386 90.2239 6 90.5 6C90.7761 6 91 6.22386 91 6.5Z" fill="#35FEE0"/>
<path d="M85 6.5C85 6.77614 84.7761 7 84.5 7C84.2239 7 84 6.77614 84 6.5C84 6.22386 84.2239 6 84.5 6C84.7761 6 85 6.22386 85 6.5Z" fill="#35FEE0"/>
<path d="M79 6.5C79 6.77614 78.7761 7 78.5 7C78.2239 7 78 6.77614 78 6.5C78 6.22386 78.2239 6 78.5 6C78.7761 6 79 6.22386 79 6.5Z" fill="#35FEE0"/>
<path d="M73 6.5C73 6.77614 72.7761 7 72.5 7C72.2239 7 72 6.77614 72 6.5C72 6.22386 72.2239 6 72.5 6C72.7761 6 73 6.22386 73 6.5Z" fill="#35FEE0"/>
<path d="M67 6.5C67 6.77614 66.7761 7 66.5 7C66.2239 7 66 6.77614 66 6.5C66 6.22386 66.2239 6 66.5 6C66.7761 6 67 6.22386 67 6.5Z" fill="#35FEE0"/>
<path d="M61 6.5C61 6.77614 60.7761 7 60.5 7C60.2239 7 60 6.77614 60 6.5C60 6.22386 60.2239 6 60.5 6C60.7761 6 61 6.22386 61 6.5Z" fill="#35FEE0"/>
<path d="M100 3.5C100 3.77614 99.7761 4 99.5 4C99.2239 4 99 3.77614 99 3.5C99 3.22386 99.2239 3 99.5 3C99.7761 3 100 3.22386 100 3.5Z" fill="#35FEE0"/>
<path d="M106 3.5C106 3.77614 105.776 4 105.5 4C105.224 4 105 3.77614 105 3.5C105 3.22386 105.224 3 105.5 3C105.776 3 106 3.22386 106 3.5Z" fill="#35FEE0"/>
<path d="M112 3.5C112 3.77614 111.776 4 111.5 4C111.224 4 111 3.77614 111 3.5C111 3.22386 111.224 3 111.5 3C111.776 3 112 3.22386 112 3.5Z" fill="#35FEE0"/>
<path d="M118 3.5C118 3.77614 117.776 4 117.5 4C117.224 4 117 3.77614 117 3.5C117 3.22386 117.224 3 117.5 3C117.776 3 118 3.22386 118 3.5Z" fill="#35FEE0"/>
<path d="M94 3.5C94 3.77614 93.7761 4 93.5 4C93.2239 4 93 3.77614 93 3.5C93 3.22386 93.2239 3 93.5 3C93.7761 3 94 3.22386 94 3.5Z" fill="#35FEE0"/>
<path d="M88 3.5C88 3.77614 87.7761 4 87.5 4C87.2239 4 87 3.77614 87 3.5C87 3.22386 87.2239 3 87.5 3C87.7761 3 88 3.22386 88 3.5Z" fill="#35FEE0"/>
<path d="M82 3.5C82 3.77614 81.7761 4 81.5 4C81.2239 4 81 3.77614 81 3.5C81 3.22386 81.2239 3 81.5 3C81.7761 3 82 3.22386 82 3.5Z" fill="#35FEE0"/>
<path d="M76 3.5C76 3.77614 75.7761 4 75.5 4C75.2239 4 75 3.77614 75 3.5C75 3.22386 75.2239 3 75.5 3C75.7761 3 76 3.22386 76 3.5Z" fill="#35FEE0"/>
<path d="M70 3.5C70 3.77614 69.7761 4 69.5 4C69.2239 4 69 3.77614 69 3.5C69 3.22386 69.2239 3 69.5 3C69.7761 3 70 3.22386 70 3.5Z" fill="#35FEE0"/>
<path d="M64 3.5C64 3.77614 63.7761 4 63.5 4C63.2239 4 63 3.77614 63 3.5C63 3.22386 63.2239 3 63.5 3C63.7761 3 64 3.22386 64 3.5Z" fill="#35FEE0"/>
<path d="M100 9.5C100 9.77614 99.7761 10 99.5 10C99.2239 10 99 9.77614 99 9.5C99 9.22386 99.2239 9 99.5 9C99.7761 9 100 9.22386 100 9.5Z" fill="#35FEE0"/>
<path d="M106 9.5C106 9.77614 105.776 10 105.5 10C105.224 10 105 9.77614 105 9.5C105 9.22386 105.224 9 105.5 9C105.776 9 106 9.22386 106 9.5Z" fill="#35FEE0"/>
<path d="M112 9.5C112 9.77614 111.776 10 111.5 10C111.224 10 111 9.77614 111 9.5C111 9.22386 111.224 9 111.5 9C111.776 9 112 9.22386 112 9.5Z" fill="#35FEE0"/>
<path d="M118 9.5C118 9.77614 117.776 10 117.5 10C117.224 10 117 9.77614 117 9.5C117 9.22386 117.224 9 117.5 9C117.776 9 118 9.22386 118 9.5Z" fill="#35FEE0"/>
<path d="M94 9.5C94 9.77614 93.7761 10 93.5 10C93.2239 10 93 9.77614 93 9.5C93 9.22386 93.2239 9 93.5 9C93.7761 9 94 9.22386 94 9.5Z" fill="#35FEE0"/>
<path d="M88 9.5C88 9.77614 87.7761 10 87.5 10C87.2239 10 87 9.77614 87 9.5C87 9.22386 87.2239 9 87.5 9C87.7761 9 88 9.22386 88 9.5Z" fill="#35FEE0"/>
<path d="M82 9.5C82 9.77614 81.7761 10 81.5 10C81.2239 10 81 9.77614 81 9.5C81 9.22386 81.2239 9 81.5 9C81.7761 9 82 9.22386 82 9.5Z" fill="#35FEE0"/>
<path d="M76 9.5C76 9.77614 75.7761 10 75.5 10C75.2239 10 75 9.77614 75 9.5C75 9.22386 75.2239 9 75.5 9C75.7761 9 76 9.22386 76 9.5Z" fill="#35FEE0"/>
<path d="M70 9.5C70 9.77614 69.7761 10 69.5 10C69.2239 10 69 9.77614 69 9.5C69 9.22386 69.2239 9 69.5 9C69.7761 9 70 9.22386 70 9.5Z" fill="#35FEE0"/>
<path d="M64 9.5C64 9.77614 63.7761 10 63.5 10C63.2239 10 63 9.77614 63 9.5C63 9.22386 63.2239 9 63.5 9C63.7761 9 64 9.22386 64 9.5Z" fill="#35FEE0"/>
<path d="M100 15.5C100 15.7761 99.7761 16 99.5 16C99.2239 16 99 15.7761 99 15.5C99 15.2239 99.2239 15 99.5 15C99.7761 15 100 15.2239 100 15.5Z" fill="#35FEE0"/>
<path d="M106 15.5C106 15.7761 105.776 16 105.5 16C105.224 16 105 15.7761 105 15.5C105 15.2239 105.224 15 105.5 15C105.776 15 106 15.2239 106 15.5Z" fill="#35FEE0"/>
<path d="M112 15.5C112 15.7761 111.776 16 111.5 16C111.224 16 111 15.7761 111 15.5C111 15.2239 111.224 15 111.5 15C111.776 15 112 15.2239 112 15.5Z" fill="#35FEE0"/>
<path d="M118 15.5C118 15.7761 117.776 16 117.5 16C117.224 16 117 15.7761 117 15.5C117 15.2239 117.224 15 117.5 15C117.776 15 118 15.2239 118 15.5Z" fill="#35FEE0"/>
<path d="M94 15.5C94 15.7761 93.7761 16 93.5 16C93.2239 16 93 15.7761 93 15.5C93 15.2239 93.2239 15 93.5 15C93.7761 15 94 15.2239 94 15.5Z" fill="#35FEE0"/>
<path d="M88 15.5C88 15.7761 87.7761 16 87.5 16C87.2239 16 87 15.7761 87 15.5C87 15.2239 87.2239 15 87.5 15C87.7761 15 88 15.2239 88 15.5Z" fill="#35FEE0"/>
<path d="M82 15.5C82 15.7761 81.7761 16 81.5 16C81.2239 16 81 15.7761 81 15.5C81 15.2239 81.2239 15 81.5 15C81.7761 15 82 15.2239 82 15.5Z" fill="#35FEE0"/>
<path d="M76 15.5C76 15.7761 75.7761 16 75.5 16C75.2239 16 75 15.7761 75 15.5C75 15.2239 75.2239 15 75.5 15C75.7761 15 76 15.2239 76 15.5Z" fill="#35FEE0"/>
<path d="M70 15.5C70 15.7761 69.7761 16 69.5 16C69.2239 16 69 15.7761 69 15.5C69 15.2239 69.2239 15 69.5 15C69.7761 15 70 15.2239 70 15.5Z" fill="#35FEE0"/>
<path d="M64 15.5C64 15.7761 63.7761 16 63.5 16C63.2239 16 63 15.7761 63 15.5C63 15.2239 63.2239 15 63.5 15C63.7761 15 64 15.2239 64 15.5Z" fill="#35FEE0"/>
<path d="M100 21.5C100 21.7761 99.7761 22 99.5 22C99.2239 22 99 21.7761 99 21.5C99 21.2239 99.2239 21 99.5 21C99.7761 21 100 21.2239 100 21.5Z" fill="#35FEE0"/>
<path d="M106 21.5C106 21.7761 105.776 22 105.5 22C105.224 22 105 21.7761 105 21.5C105 21.2239 105.224 21 105.5 21C105.776 21 106 21.2239 106 21.5Z" fill="#35FEE0"/>
<path d="M112 21.5C112 21.7761 111.776 22 111.5 22C111.224 22 111 21.7761 111 21.5C111 21.2239 111.224 21 111.5 21C111.776 21 112 21.2239 112 21.5Z" fill="#35FEE0"/>
<path d="M118 21.5C118 21.7761 117.776 22 117.5 22C117.224 22 117 21.7761 117 21.5C117 21.2239 117.224 21 117.5 21C117.776 21 118 21.2239 118 21.5Z" fill="#35FEE0"/>
<path d="M94 21.5C94 21.7761 93.7761 22 93.5 22C93.2239 22 93 21.7761 93 21.5C93 21.2239 93.2239 21 93.5 21C93.7761 21 94 21.2239 94 21.5Z" fill="#35FEE0"/>
<path d="M88 21.5C88 21.7761 87.7761 22 87.5 22C87.2239 22 87 21.7761 87 21.5C87 21.2239 87.2239 21 87.5 21C87.7761 21 88 21.2239 88 21.5Z" fill="#35FEE0"/>
<path d="M82 21.5C82 21.7761 81.7761 22 81.5 22C81.2239 22 81 21.7761 81 21.5C81 21.2239 81.2239 21 81.5 21C81.7761 21 82 21.2239 82 21.5Z" fill="#35FEE0"/>
<path d="M76 21.5C76 21.7761 75.7761 22 75.5 22C75.2239 22 75 21.7761 75 21.5C75 21.2239 75.2239 21 75.5 21C75.7761 21 76 21.2239 76 21.5Z" fill="#35FEE0"/>
<path d="M70 21.5C70 21.7761 69.7761 22 69.5 22C69.2239 22 69 21.7761 69 21.5C69 21.2239 69.2239 21 69.5 21C69.7761 21 70 21.2239 70 21.5Z" fill="#35FEE0"/>
<path d="M64 21.5C64 21.7761 63.7761 22 63.5 22C63.2239 22 63 21.7761 63 21.5C63 21.2239 63.2239 21 63.5 21C63.7761 21 64 21.2239 64 21.5Z" fill="#35FEE0"/>
<path d="M97 12.5C97 12.7761 96.7761 13 96.5 13C96.2239 13 96 12.7761 96 12.5C96 12.2239 96.2239 12 96.5 12C96.7761 12 97 12.2239 97 12.5Z" fill="#35FEE0"/>
<path d="M103 12.5C103 12.7761 102.776 13 102.5 13C102.224 13 102 12.7761 102 12.5C102 12.2239 102.224 12 102.5 12C102.776 12 103 12.2239 103 12.5Z" fill="#35FEE0"/>
<path d="M109 12.5C109 12.7761 108.776 13 108.5 13C108.224 13 108 12.7761 108 12.5C108 12.2239 108.224 12 108.5 12C108.776 12 109 12.2239 109 12.5Z" fill="#35FEE0"/>
<path d="M115 12.5C115 12.7761 114.776 13 114.5 13C114.224 13 114 12.7761 114 12.5C114 12.2239 114.224 12 114.5 12C114.776 12 115 12.2239 115 12.5Z" fill="#35FEE0"/>
<path d="M91 12.5C91 12.7761 90.7761 13 90.5 13C90.2239 13 90 12.7761 90 12.5C90 12.2239 90.2239 12 90.5 12C90.7761 12 91 12.2239 91 12.5Z" fill="#35FEE0"/>
<path d="M85 12.5C85 12.7761 84.7761 13 84.5 13C84.2239 13 84 12.7761 84 12.5C84 12.2239 84.2239 12 84.5 12C84.7761 12 85 12.2239 85 12.5Z" fill="#35FEE0"/>
<path d="M79 12.5C79 12.7761 78.7761 13 78.5 13C78.2239 13 78 12.7761 78 12.5C78 12.2239 78.2239 12 78.5 12C78.7761 12 79 12.2239 79 12.5Z" fill="#35FEE0"/>
<path d="M73 12.5C73 12.7761 72.7761 13 72.5 13C72.2239 13 72 12.7761 72 12.5C72 12.2239 72.2239 12 72.5 12C72.7761 12 73 12.2239 73 12.5Z" fill="#35FEE0"/>
<path d="M67 12.5C67 12.7761 66.7761 13 66.5 13C66.2239 13 66 12.7761 66 12.5C66 12.2239 66.2239 12 66.5 12C66.7761 12 67 12.2239 67 12.5Z" fill="#35FEE0"/>
<path d="M61 12.5C61 12.7761 60.7761 13 60.5 13C60.2239 13 60 12.7761 60 12.5C60 12.2239 60.2239 12 60.5 12C60.7761 12 61 12.2239 61 12.5Z" fill="#35FEE0"/>
<path d="M97 18.5C97 18.7761 96.7761 19 96.5 19C96.2239 19 96 18.7761 96 18.5C96 18.2239 96.2239 18 96.5 18C96.7761 18 97 18.2239 97 18.5Z" fill="#35FEE0"/>
<path d="M103 18.5C103 18.7761 102.776 19 102.5 19C102.224 19 102 18.7761 102 18.5C102 18.2239 102.224 18 102.5 18C102.776 18 103 18.2239 103 18.5Z" fill="#35FEE0"/>
<path d="M109 18.5C109 18.7761 108.776 19 108.5 19C108.224 19 108 18.7761 108 18.5C108 18.2239 108.224 18 108.5 18C108.776 18 109 18.2239 109 18.5Z" fill="#35FEE0"/>
<path d="M115 18.5C115 18.7761 114.776 19 114.5 19C114.224 19 114 18.7761 114 18.5C114 18.2239 114.224 18 114.5 18C114.776 18 115 18.2239 115 18.5Z" fill="#35FEE0"/>
<path d="M91 18.5C91 18.7761 90.7761 19 90.5 19C90.2239 19 90 18.7761 90 18.5C90 18.2239 90.2239 18 90.5 18C90.7761 18 91 18.2239 91 18.5Z" fill="#35FEE0"/>
<path d="M85 18.5C85 18.7761 84.7761 19 84.5 19C84.2239 19 84 18.7761 84 18.5C84 18.2239 84.2239 18 84.5 18C84.7761 18 85 18.2239 85 18.5Z" fill="#35FEE0"/>
<path d="M79 18.5C79 18.7761 78.7761 19 78.5 19C78.2239 19 78 18.7761 78 18.5C78 18.2239 78.2239 18 78.5 18C78.7761 18 79 18.2239 79 18.5Z" fill="#35FEE0"/>
<path d="M73 18.5C73 18.7761 72.7761 19 72.5 19C72.2239 19 72 18.7761 72 18.5C72 18.2239 72.2239 18 72.5 18C72.7761 18 73 18.2239 73 18.5Z" fill="#35FEE0"/>
<path d="M67 18.5C67 18.7761 66.7761 19 66.5 19C66.2239 19 66 18.7761 66 18.5C66 18.2239 66.2239 18 66.5 18C66.7761 18 67 18.2239 67 18.5Z" fill="#35FEE0"/>
<path d="M61 18.5C61 18.7761 60.7761 19 60.5 19C60.2239 19 60 18.7761 60 18.5C60 18.2239 60.2239 18 60.5 18C60.7761 18 61 18.2239 61 18.5Z" fill="#35FEE0"/>
<path d="M97 24.5C97 24.7761 96.7761 25 96.5 25C96.2239 25 96 24.7761 96 24.5C96 24.2239 96.2239 24 96.5 24C96.7761 24 97 24.2239 97 24.5Z" fill="#35FEE0"/>
<path d="M103 24.5C103 24.7761 102.776 25 102.5 25C102.224 25 102 24.7761 102 24.5C102 24.2239 102.224 24 102.5 24C102.776 24 103 24.2239 103 24.5Z" fill="#35FEE0"/>
<path d="M109 24.5C109 24.7761 108.776 25 108.5 25C108.224 25 108 24.7761 108 24.5C108 24.2239 108.224 24 108.5 24C108.776 24 109 24.2239 109 24.5Z" fill="#35FEE0"/>
<path d="M115 24.5C115 24.7761 114.776 25 114.5 25C114.224 25 114 24.7761 114 24.5C114 24.2239 114.224 24 114.5 24C114.776 24 115 24.2239 115 24.5Z" fill="#35FEE0"/>
<path d="M91 24.5C91 24.7761 90.7761 25 90.5 25C90.2239 25 90 24.7761 90 24.5C90 24.2239 90.2239 24 90.5 24C90.7761 24 91 24.2239 91 24.5Z" fill="#35FEE0"/>
<path d="M85 24.5C85 24.7761 84.7761 25 84.5 25C84.2239 25 84 24.7761 84 24.5C84 24.2239 84.2239 24 84.5 24C84.7761 24 85 24.2239 85 24.5Z" fill="#35FEE0"/>
<path d="M79 24.5C79 24.7761 78.7761 25 78.5 25C78.2239 25 78 24.7761 78 24.5C78 24.2239 78.2239 24 78.5 24C78.7761 24 79 24.2239 79 24.5Z" fill="#35FEE0"/>
<path d="M73 24.5C73 24.7761 72.7761 25 72.5 25C72.2239 25 72 24.7761 72 24.5C72 24.2239 72.2239 24 72.5 24C72.7761 24 73 24.2239 73 24.5Z" fill="#35FEE0"/>
<path d="M67 24.5C67 24.7761 66.7761 25 66.5 25C66.2239 25 66 24.7761 66 24.5C66 24.2239 66.2239 24 66.5 24C66.7761 24 67 24.2239 67 24.5Z" fill="#35FEE0"/>
<path d="M61 24.5C61 24.7761 60.7761 25 60.5 25C60.2239 25 60 24.7761 60 24.5C60 24.2239 60.2239 24 60.5 24C60.7761 24 61 24.2239 61 24.5Z" fill="#35FEE0"/>
<path d="M37 24.5C37 24.7761 36.7761 25 36.5 25C36.2239 25 36 24.7761 36 24.5C36 24.2239 36.2239 24 36.5 24C36.7761 24 37 24.2239 37 24.5Z" fill="#35FEE0"/>
<path d="M43 24.5C43 24.7761 42.7761 25 42.5 25C42.2239 25 42 24.7761 42 24.5C42 24.2239 42.2239 24 42.5 24C42.7761 24 43 24.2239 43 24.5Z" fill="#35FEE0"/>
<path d="M49 24.5C49 24.7761 48.7761 25 48.5 25C48.2239 25 48 24.7761 48 24.5C48 24.2239 48.2239 24 48.5 24C48.7761 24 49 24.2239 49 24.5Z" fill="#35FEE0"/>
<path d="M55 24.5C55 24.7761 54.7761 25 54.5 25C54.2239 25 54 24.7761 54 24.5C54 24.2239 54.2239 24 54.5 24C54.7761 24 55 24.2239 55 24.5Z" fill="#35FEE0"/>
<path d="M31 24.5C31 24.7761 30.7761 25 30.5 25C30.2239 25 30 24.7761 30 24.5C30 24.2239 30.2239 24 30.5 24C30.7761 24 31 24.2239 31 24.5Z" fill="#35FEE0"/>
<path d="M25 24.5C25 24.7761 24.7761 25 24.5 25C24.2239 25 24 24.7761 24 24.5C24 24.2239 24.2239 24 24.5 24C24.7761 24 25 24.2239 25 24.5Z" fill="#35FEE0"/>
<path d="M19 24.5C19 24.7761 18.7761 25 18.5 25C18.2239 25 18 24.7761 18 24.5C18 24.2239 18.2239 24 18.5 24C18.7761 24 19 24.2239 19 24.5Z" fill="#35FEE0"/>
<path d="M13 24.5C13 24.7761 12.7761 25 12.5 25C12.2239 25 12 24.7761 12 24.5C12 24.2239 12.2239 24 12.5 24C12.7761 24 13 24.2239 13 24.5Z" fill="#35FEE0"/>
<path d="M7 24.5C7 24.7761 6.77614 25 6.5 25C6.22386 25 6 24.7761 6 24.5C6 24.2239 6.22386 24 6.5 24C6.77614 24 7 24.2239 7 24.5Z" fill="#35FEE0"/>
<path d="M1 24.5C1 24.7761 0.776142 25 0.5 25C0.223858 25 0 24.7761 0 24.5C0 24.2239 0.223858 24 0.5 24C0.776142 24 1 24.2239 1 24.5Z" fill="#35FEE0"/>
<path d="M37 30.5C37 30.7761 36.7761 31 36.5 31C36.2239 31 36 30.7761 36 30.5C36 30.2239 36.2239 30 36.5 30C36.7761 30 37 30.2239 37 30.5Z" fill="#35FEE0"/>
<path d="M43 30.5C43 30.7761 42.7761 31 42.5 31C42.2239 31 42 30.7761 42 30.5C42 30.2239 42.2239 30 42.5 30C42.7761 30 43 30.2239 43 30.5Z" fill="#35FEE0"/>
<path d="M49 30.5C49 30.7761 48.7761 31 48.5 31C48.2239 31 48 30.7761 48 30.5C48 30.2239 48.2239 30 48.5 30C48.7761 30 49 30.2239 49 30.5Z" fill="#35FEE0"/>
<path d="M55 30.5C55 30.7761 54.7761 31 54.5 31C54.2239 31 54 30.7761 54 30.5C54 30.2239 54.2239 30 54.5 30C54.7761 30 55 30.2239 55 30.5Z" fill="#35FEE0"/>
<path d="M31 30.5C31 30.7761 30.7761 31 30.5 31C30.2239 31 30 30.7761 30 30.5C30 30.2239 30.2239 30 30.5 30C30.7761 30 31 30.2239 31 30.5Z" fill="#35FEE0"/>
<path d="M25 30.5C25 30.7761 24.7761 31 24.5 31C24.2239 31 24 30.7761 24 30.5C24 30.2239 24.2239 30 24.5 30C24.7761 30 25 30.2239 25 30.5Z" fill="#35FEE0"/>
<path d="M19 30.5C19 30.7761 18.7761 31 18.5 31C18.2239 31 18 30.7761 18 30.5C18 30.2239 18.2239 30 18.5 30C18.7761 30 19 30.2239 19 30.5Z" fill="#35FEE0"/>
<path d="M13 30.5C13 30.7761 12.7761 31 12.5 31C12.2239 31 12 30.7761 12 30.5C12 30.2239 12.2239 30 12.5 30C12.7761 30 13 30.2239 13 30.5Z" fill="#35FEE0"/>
<path d="M7 30.5C7 30.7761 6.77614 31 6.5 31C6.22386 31 6 30.7761 6 30.5C6 30.2239 6.22386 30 6.5 30C6.77614 30 7 30.2239 7 30.5Z" fill="#35FEE0"/>
<path d="M1 30.5C1 30.7761 0.776142 31 0.5 31C0.223858 31 0 30.7761 0 30.5C0 30.2239 0.223858 30 0.5 30C0.776142 30 1 30.2239 1 30.5Z" fill="#35FEE0"/>
<path d="M40 27.5C40 27.7761 39.7761 28 39.5 28C39.2239 28 39 27.7761 39 27.5C39 27.2239 39.2239 27 39.5 27C39.7761 27 40 27.2239 40 27.5Z" fill="#35FEE0"/>
<path d="M46 27.5C46 27.7761 45.7761 28 45.5 28C45.2239 28 45 27.7761 45 27.5C45 27.2239 45.2239 27 45.5 27C45.7761 27 46 27.2239 46 27.5Z" fill="#35FEE0"/>
<path d="M52 27.5C52 27.7761 51.7761 28 51.5 28C51.2239 28 51 27.7761 51 27.5C51 27.2239 51.2239 27 51.5 27C51.7761 27 52 27.2239 52 27.5Z" fill="#35FEE0"/>
<path d="M58 27.5C58 27.7761 57.7761 28 57.5 28C57.2239 28 57 27.7761 57 27.5C57 27.2239 57.2239 27 57.5 27C57.7761 27 58 27.2239 58 27.5Z" fill="#35FEE0"/>
<path d="M34 27.5C34 27.7761 33.7761 28 33.5 28C33.2239 28 33 27.7761 33 27.5C33 27.2239 33.2239 27 33.5 27C33.7761 27 34 27.2239 34 27.5Z" fill="#35FEE0"/>
<path d="M28 27.5C28 27.7761 27.7761 28 27.5 28C27.2239 28 27 27.7761 27 27.5C27 27.2239 27.2239 27 27.5 27C27.7761 27 28 27.2239 28 27.5Z" fill="#35FEE0"/>
<path d="M22 27.5C22 27.7761 21.7761 28 21.5 28C21.2239 28 21 27.7761 21 27.5C21 27.2239 21.2239 27 21.5 27C21.7761 27 22 27.2239 22 27.5Z" fill="#35FEE0"/>
<path d="M16 27.5C16 27.7761 15.7761 28 15.5 28C15.2239 28 15 27.7761 15 27.5C15 27.2239 15.2239 27 15.5 27C15.7761 27 16 27.2239 16 27.5Z" fill="#35FEE0"/>
<path d="M10 27.5C10 27.7761 9.77614 28 9.5 28C9.22386 28 9 27.7761 9 27.5C9 27.2239 9.22386 27 9.5 27C9.77614 27 10 27.2239 10 27.5Z" fill="#35FEE0"/>
<path d="M4 27.5C4 27.7761 3.77614 28 3.5 28C3.22386 28 3 27.7761 3 27.5C3 27.2239 3.22386 27 3.5 27C3.77614 27 4 27.2239 4 27.5Z" fill="#35FEE0"/>
<path d="M40 33.5C40 33.7761 39.7761 34 39.5 34C39.2239 34 39 33.7761 39 33.5C39 33.2239 39.2239 33 39.5 33C39.7761 33 40 33.2239 40 33.5Z" fill="#35FEE0"/>
<path d="M46 33.5C46 33.7761 45.7761 34 45.5 34C45.2239 34 45 33.7761 45 33.5C45 33.2239 45.2239 33 45.5 33C45.7761 33 46 33.2239 46 33.5Z" fill="#35FEE0"/>
<path d="M52 33.5C52 33.7761 51.7761 34 51.5 34C51.2239 34 51 33.7761 51 33.5C51 33.2239 51.2239 33 51.5 33C51.7761 33 52 33.2239 52 33.5Z" fill="#35FEE0"/>
<path d="M58 33.5C58 33.7761 57.7761 34 57.5 34C57.2239 34 57 33.7761 57 33.5C57 33.2239 57.2239 33 57.5 33C57.7761 33 58 33.2239 58 33.5Z" fill="#35FEE0"/>
<path d="M34 33.5C34 33.7761 33.7761 34 33.5 34C33.2239 34 33 33.7761 33 33.5C33 33.2239 33.2239 33 33.5 33C33.7761 33 34 33.2239 34 33.5Z" fill="#35FEE0"/>
<path d="M28 33.5C28 33.7761 27.7761 34 27.5 34C27.2239 34 27 33.7761 27 33.5C27 33.2239 27.2239 33 27.5 33C27.7761 33 28 33.2239 28 33.5Z" fill="#35FEE0"/>
<path d="M22 33.5C22 33.7761 21.7761 34 21.5 34C21.2239 34 21 33.7761 21 33.5C21 33.2239 21.2239 33 21.5 33C21.7761 33 22 33.2239 22 33.5Z" fill="#35FEE0"/>
<path d="M16 33.5C16 33.7761 15.7761 34 15.5 34C15.2239 34 15 33.7761 15 33.5C15 33.2239 15.2239 33 15.5 33C15.7761 33 16 33.2239 16 33.5Z" fill="#35FEE0"/>
<path d="M10 33.5C10 33.7761 9.77614 34 9.5 34C9.22386 34 9 33.7761 9 33.5C9 33.2239 9.22386 33 9.5 33C9.77614 33 10 33.2239 10 33.5Z" fill="#35FEE0"/>
<path d="M4 33.5C4 33.7761 3.77614 34 3.5 34C3.22386 34 3 33.7761 3 33.5C3 33.2239 3.22386 33 3.5 33C3.77614 33 4 33.2239 4 33.5Z" fill="#35FEE0"/>
<path d="M40 39.5C40 39.7761 39.7761 40 39.5 40C39.2239 40 39 39.7761 39 39.5C39 39.2239 39.2239 39 39.5 39C39.7761 39 40 39.2239 40 39.5Z" fill="#35FEE0"/>
<path d="M46 39.5C46 39.7761 45.7761 40 45.5 40C45.2239 40 45 39.7761 45 39.5C45 39.2239 45.2239 39 45.5 39C45.7761 39 46 39.2239 46 39.5Z" fill="#35FEE0"/>
<path d="M52 39.5C52 39.7761 51.7761 40 51.5 40C51.2239 40 51 39.7761 51 39.5C51 39.2239 51.2239 39 51.5 39C51.7761 39 52 39.2239 52 39.5Z" fill="#35FEE0"/>
<path d="M58 39.5C58 39.7761 57.7761 40 57.5 40C57.2239 40 57 39.7761 57 39.5C57 39.2239 57.2239 39 57.5 39C57.7761 39 58 39.2239 58 39.5Z" fill="#35FEE0"/>
<path d="M34 39.5C34 39.7761 33.7761 40 33.5 40C33.2239 40 33 39.7761 33 39.5C33 39.2239 33.2239 39 33.5 39C33.7761 39 34 39.2239 34 39.5Z" fill="#35FEE0"/>
<path d="M28 39.5C28 39.7761 27.7761 40 27.5 40C27.2239 40 27 39.7761 27 39.5C27 39.2239 27.2239 39 27.5 39C27.7761 39 28 39.2239 28 39.5Z" fill="#35FEE0"/>
<path d="M22 39.5C22 39.7761 21.7761 40 21.5 40C21.2239 40 21 39.7761 21 39.5C21 39.2239 21.2239 39 21.5 39C21.7761 39 22 39.2239 22 39.5Z" fill="#35FEE0"/>
<path d="M16 39.5C16 39.7761 15.7761 40 15.5 40C15.2239 40 15 39.7761 15 39.5C15 39.2239 15.2239 39 15.5 39C15.7761 39 16 39.2239 16 39.5Z" fill="#35FEE0"/>
<path d="M10 39.5C10 39.7761 9.77614 40 9.5 40C9.22386 40 9 39.7761 9 39.5C9 39.2239 9.22386 39 9.5 39C9.77614 39 10 39.2239 10 39.5Z" fill="#35FEE0"/>
<path d="M4 39.5C4 39.7761 3.77614 40 3.5 40C3.22386 40 3 39.7761 3 39.5C3 39.2239 3.22386 39 3.5 39C3.77614 39 4 39.2239 4 39.5Z" fill="#35FEE0"/>
<path d="M40 45.5C40 45.7761 39.7761 46 39.5 46C39.2239 46 39 45.7761 39 45.5C39 45.2239 39.2239 45 39.5 45C39.7761 45 40 45.2239 40 45.5Z" fill="#35FEE0"/>
<path d="M46 45.5C46 45.7761 45.7761 46 45.5 46C45.2239 46 45 45.7761 45 45.5C45 45.2239 45.2239 45 45.5 45C45.7761 45 46 45.2239 46 45.5Z" fill="#35FEE0"/>
<path d="M52 45.5C52 45.7761 51.7761 46 51.5 46C51.2239 46 51 45.7761 51 45.5C51 45.2239 51.2239 45 51.5 45C51.7761 45 52 45.2239 52 45.5Z" fill="#35FEE0"/>
<path d="M58 45.5C58 45.7761 57.7761 46 57.5 46C57.2239 46 57 45.7761 57 45.5C57 45.2239 57.2239 45 57.5 45C57.7761 45 58 45.2239 58 45.5Z" fill="#35FEE0"/>
<path d="M34 45.5C34 45.7761 33.7761 46 33.5 46C33.2239 46 33 45.7761 33 45.5C33 45.2239 33.2239 45 33.5 45C33.7761 45 34 45.2239 34 45.5Z" fill="#35FEE0"/>
<path d="M28 45.5C28 45.7761 27.7761 46 27.5 46C27.2239 46 27 45.7761 27 45.5C27 45.2239 27.2239 45 27.5 45C27.7761 45 28 45.2239 28 45.5Z" fill="#35FEE0"/>
<path d="M22 45.5C22 45.7761 21.7761 46 21.5 46C21.2239 46 21 45.7761 21 45.5C21 45.2239 21.2239 45 21.5 45C21.7761 45 22 45.2239 22 45.5Z" fill="#35FEE0"/>
<path d="M16 45.5C16 45.7761 15.7761 46 15.5 46C15.2239 46 15 45.7761 15 45.5C15 45.2239 15.2239 45 15.5 45C15.7761 45 16 45.2239 16 45.5Z" fill="#35FEE0"/>
<path d="M10 45.5C10 45.7761 9.77614 46 9.5 46C9.22386 46 9 45.7761 9 45.5C9 45.2239 9.22386 45 9.5 45C9.77614 45 10 45.2239 10 45.5Z" fill="#35FEE0"/>
<path d="M4 45.5C4 45.7761 3.77614 46 3.5 46C3.22386 46 3 45.7761 3 45.5C3 45.2239 3.22386 45 3.5 45C3.77614 45 4 45.2239 4 45.5Z" fill="#35FEE0"/>
<path d="M37 36.5C37 36.7761 36.7761 37 36.5 37C36.2239 37 36 36.7761 36 36.5C36 36.2239 36.2239 36 36.5 36C36.7761 36 37 36.2239 37 36.5Z" fill="#35FEE0"/>
<path d="M43 36.5C43 36.7761 42.7761 37 42.5 37C42.2239 37 42 36.7761 42 36.5C42 36.2239 42.2239 36 42.5 36C42.7761 36 43 36.2239 43 36.5Z" fill="#35FEE0"/>
<path d="M49 36.5C49 36.7761 48.7761 37 48.5 37C48.2239 37 48 36.7761 48 36.5C48 36.2239 48.2239 36 48.5 36C48.7761 36 49 36.2239 49 36.5Z" fill="#35FEE0"/>
<path d="M55 36.5C55 36.7761 54.7761 37 54.5 37C54.2239 37 54 36.7761 54 36.5C54 36.2239 54.2239 36 54.5 36C54.7761 36 55 36.2239 55 36.5Z" fill="#35FEE0"/>
<path d="M31 36.5C31 36.7761 30.7761 37 30.5 37C30.2239 37 30 36.7761 30 36.5C30 36.2239 30.2239 36 30.5 36C30.7761 36 31 36.2239 31 36.5Z" fill="#35FEE0"/>
<path d="M25 36.5C25 36.7761 24.7761 37 24.5 37C24.2239 37 24 36.7761 24 36.5C24 36.2239 24.2239 36 24.5 36C24.7761 36 25 36.2239 25 36.5Z" fill="#35FEE0"/>
<path d="M19 36.5C19 36.7761 18.7761 37 18.5 37C18.2239 37 18 36.7761 18 36.5C18 36.2239 18.2239 36 18.5 36C18.7761 36 19 36.2239 19 36.5Z" fill="#35FEE0"/>
<path d="M13 36.5C13 36.7761 12.7761 37 12.5 37C12.2239 37 12 36.7761 12 36.5C12 36.2239 12.2239 36 12.5 36C12.7761 36 13 36.2239 13 36.5Z" fill="#35FEE0"/>
<path d="M7 36.5C7 36.7761 6.77614 37 6.5 37C6.22386 37 6 36.7761 6 36.5C6 36.2239 6.22386 36 6.5 36C6.77614 36 7 36.2239 7 36.5Z" fill="#35FEE0"/>
<path d="M1 36.5C1 36.7761 0.776142 37 0.5 37C0.223858 37 0 36.7761 0 36.5C0 36.2239 0.223858 36 0.5 36C0.776142 36 1 36.2239 1 36.5Z" fill="#35FEE0"/>
<path d="M37 42.5C37 42.7761 36.7761 43 36.5 43C36.2239 43 36 42.7761 36 42.5C36 42.2239 36.2239 42 36.5 42C36.7761 42 37 42.2239 37 42.5Z" fill="#35FEE0"/>
<path d="M43 42.5C43 42.7761 42.7761 43 42.5 43C42.2239 43 42 42.7761 42 42.5C42 42.2239 42.2239 42 42.5 42C42.7761 42 43 42.2239 43 42.5Z" fill="#35FEE0"/>
<path d="M49 42.5C49 42.7761 48.7761 43 48.5 43C48.2239 43 48 42.7761 48 42.5C48 42.2239 48.2239 42 48.5 42C48.7761 42 49 42.2239 49 42.5Z" fill="#35FEE0"/>
<path d="M55 42.5C55 42.7761 54.7761 43 54.5 43C54.2239 43 54 42.7761 54 42.5C54 42.2239 54.2239 42 54.5 42C54.7761 42 55 42.2239 55 42.5Z" fill="#35FEE0"/>
<path d="M31 42.5C31 42.7761 30.7761 43 30.5 43C30.2239 43 30 42.7761 30 42.5C30 42.2239 30.2239 42 30.5 42C30.7761 42 31 42.2239 31 42.5Z" fill="#35FEE0"/>
<path d="M25 42.5C25 42.7761 24.7761 43 24.5 43C24.2239 43 24 42.7761 24 42.5C24 42.2239 24.2239 42 24.5 42C24.7761 42 25 42.2239 25 42.5Z" fill="#35FEE0"/>
<path d="M19 42.5C19 42.7761 18.7761 43 18.5 43C18.2239 43 18 42.7761 18 42.5C18 42.2239 18.2239 42 18.5 42C18.7761 42 19 42.2239 19 42.5Z" fill="#35FEE0"/>
<path d="M13 42.5C13 42.7761 12.7761 43 12.5 43C12.2239 43 12 42.7761 12 42.5C12 42.2239 12.2239 42 12.5 42C12.7761 42 13 42.2239 13 42.5Z" fill="#35FEE0"/>
<path d="M7 42.5C7 42.7761 6.77614 43 6.5 43C6.22386 43 6 42.7761 6 42.5C6 42.2239 6.22386 42 6.5 42C6.77614 42 7 42.2239 7 42.5Z" fill="#35FEE0"/>
<path d="M1 42.5C1 42.7761 0.776142 43 0.5 43C0.223858 43 0 42.7761 0 42.5C0 42.2239 0.223858 42 0.5 42C0.776142 42 1 42.2239 1 42.5Z" fill="#35FEE0"/>
<path d="M37 48.5C37 48.7761 36.7761 49 36.5 49C36.2239 49 36 48.7761 36 48.5C36 48.2239 36.2239 48 36.5 48C36.7761 48 37 48.2239 37 48.5Z" fill="#35FEE0"/>
<path d="M43 48.5C43 48.7761 42.7761 49 42.5 49C42.2239 49 42 48.7761 42 48.5C42 48.2239 42.2239 48 42.5 48C42.7761 48 43 48.2239 43 48.5Z" fill="#35FEE0"/>
<path d="M49 48.5C49 48.7761 48.7761 49 48.5 49C48.2239 49 48 48.7761 48 48.5C48 48.2239 48.2239 48 48.5 48C48.7761 48 49 48.2239 49 48.5Z" fill="#35FEE0"/>
<path d="M55 48.5C55 48.7761 54.7761 49 54.5 49C54.2239 49 54 48.7761 54 48.5C54 48.2239 54.2239 48 54.5 48C54.7761 48 55 48.2239 55 48.5Z" fill="#35FEE0"/>
<path d="M31 48.5C31 48.7761 30.7761 49 30.5 49C30.2239 49 30 48.7761 30 48.5C30 48.2239 30.2239 48 30.5 48C30.7761 48 31 48.2239 31 48.5Z" fill="#35FEE0"/>
<path d="M25 48.5C25 48.7761 24.7761 49 24.5 49C24.2239 49 24 48.7761 24 48.5C24 48.2239 24.2239 48 24.5 48C24.7761 48 25 48.2239 25 48.5Z" fill="#35FEE0"/>
<path d="M19 48.5C19 48.7761 18.7761 49 18.5 49C18.2239 49 18 48.7761 18 48.5C18 48.2239 18.2239 48 18.5 48C18.7761 48 19 48.2239 19 48.5Z" fill="#35FEE0"/>
<path d="M13 48.5C13 48.7761 12.7761 49 12.5 49C12.2239 49 12 48.7761 12 48.5C12 48.2239 12.2239 48 12.5 48C12.7761 48 13 48.2239 13 48.5Z" fill="#35FEE0"/>
<path d="M7 48.5C7 48.7761 6.77614 49 6.5 49C6.22386 49 6 48.7761 6 48.5C6 48.2239 6.22386 48 6.5 48C6.77614 48 7 48.2239 7 48.5Z" fill="#35FEE0"/>
<path d="M1 48.5C1 48.7761 0.776142 49 0.5 49C0.223858 49 0 48.7761 0 48.5C0 48.2239 0.223858 48 0.5 48C0.776142 48 1 48.2239 1 48.5Z" fill="#35FEE0"/>
<path d="M97 24.5C97 24.7761 96.7761 25 96.5 25C96.2239 25 96 24.7761 96 24.5C96 24.2239 96.2239 24 96.5 24C96.7761 24 97 24.2239 97 24.5Z" fill="#35FEE0"/>
<path d="M103 24.5C103 24.7761 102.776 25 102.5 25C102.224 25 102 24.7761 102 24.5C102 24.2239 102.224 24 102.5 24C102.776 24 103 24.2239 103 24.5Z" fill="#35FEE0"/>
<path d="M109 24.5C109 24.7761 108.776 25 108.5 25C108.224 25 108 24.7761 108 24.5C108 24.2239 108.224 24 108.5 24C108.776 24 109 24.2239 109 24.5Z" fill="#35FEE0"/>
<path d="M115 24.5C115 24.7761 114.776 25 114.5 25C114.224 25 114 24.7761 114 24.5C114 24.2239 114.224 24 114.5 24C114.776 24 115 24.2239 115 24.5Z" fill="#35FEE0"/>
<path d="M91 24.5C91 24.7761 90.7761 25 90.5 25C90.2239 25 90 24.7761 90 24.5C90 24.2239 90.2239 24 90.5 24C90.7761 24 91 24.2239 91 24.5Z" fill="#35FEE0"/>
<path d="M85 24.5C85 24.7761 84.7761 25 84.5 25C84.2239 25 84 24.7761 84 24.5C84 24.2239 84.2239 24 84.5 24C84.7761 24 85 24.2239 85 24.5Z" fill="#35FEE0"/>
<path d="M79 24.5C79 24.7761 78.7761 25 78.5 25C78.2239 25 78 24.7761 78 24.5C78 24.2239 78.2239 24 78.5 24C78.7761 24 79 24.2239 79 24.5Z" fill="#35FEE0"/>
<path d="M73 24.5C73 24.7761 72.7761 25 72.5 25C72.2239 25 72 24.7761 72 24.5C72 24.2239 72.2239 24 72.5 24C72.7761 24 73 24.2239 73 24.5Z" fill="#35FEE0"/>
<path d="M67 24.5C67 24.7761 66.7761 25 66.5 25C66.2239 25 66 24.7761 66 24.5C66 24.2239 66.2239 24 66.5 24C66.7761 24 67 24.2239 67 24.5Z" fill="#35FEE0"/>
<path d="M61 24.5C61 24.7761 60.7761 25 60.5 25C60.2239 25 60 24.7761 60 24.5C60 24.2239 60.2239 24 60.5 24C60.7761 24 61 24.2239 61 24.5Z" fill="#35FEE0"/>
<path d="M97 30.5C97 30.7761 96.7761 31 96.5 31C96.2239 31 96 30.7761 96 30.5C96 30.2239 96.2239 30 96.5 30C96.7761 30 97 30.2239 97 30.5Z" fill="#35FEE0"/>
<path d="M103 30.5C103 30.7761 102.776 31 102.5 31C102.224 31 102 30.7761 102 30.5C102 30.2239 102.224 30 102.5 30C102.776 30 103 30.2239 103 30.5Z" fill="#35FEE0"/>
<path d="M109 30.5C109 30.7761 108.776 31 108.5 31C108.224 31 108 30.7761 108 30.5C108 30.2239 108.224 30 108.5 30C108.776 30 109 30.2239 109 30.5Z" fill="#35FEE0"/>
<path d="M115 30.5C115 30.7761 114.776 31 114.5 31C114.224 31 114 30.7761 114 30.5C114 30.2239 114.224 30 114.5 30C114.776 30 115 30.2239 115 30.5Z" fill="#35FEE0"/>
<path d="M91 30.5C91 30.7761 90.7761 31 90.5 31C90.2239 31 90 30.7761 90 30.5C90 30.2239 90.2239 30 90.5 30C90.7761 30 91 30.2239 91 30.5Z" fill="#35FEE0"/>
<path d="M85 30.5C85 30.7761 84.7761 31 84.5 31C84.2239 31 84 30.7761 84 30.5C84 30.2239 84.2239 30 84.5 30C84.7761 30 85 30.2239 85 30.5Z" fill="#35FEE0"/>
<path d="M79 30.5C79 30.7761 78.7761 31 78.5 31C78.2239 31 78 30.7761 78 30.5C78 30.2239 78.2239 30 78.5 30C78.7761 30 79 30.2239 79 30.5Z" fill="#35FEE0"/>
<path d="M73 30.5C73 30.7761 72.7761 31 72.5 31C72.2239 31 72 30.7761 72 30.5C72 30.2239 72.2239 30 72.5 30C72.7761 30 73 30.2239 73 30.5Z" fill="#35FEE0"/>
<path d="M67 30.5C67 30.7761 66.7761 31 66.5 31C66.2239 31 66 30.7761 66 30.5C66 30.2239 66.2239 30 66.5 30C66.7761 30 67 30.2239 67 30.5Z" fill="#35FEE0"/>
<path d="M61 30.5C61 30.7761 60.7761 31 60.5 31C60.2239 31 60 30.7761 60 30.5C60 30.2239 60.2239 30 60.5 30C60.7761 30 61 30.2239 61 30.5Z" fill="#35FEE0"/>
<path d="M100 27.5C100 27.7761 99.7761 28 99.5 28C99.2239 28 99 27.7761 99 27.5C99 27.2239 99.2239 27 99.5 27C99.7761 27 100 27.2239 100 27.5Z" fill="#35FEE0"/>
<path d="M106 27.5C106 27.7761 105.776 28 105.5 28C105.224 28 105 27.7761 105 27.5C105 27.2239 105.224 27 105.5 27C105.776 27 106 27.2239 106 27.5Z" fill="#35FEE0"/>
<path d="M112 27.5C112 27.7761 111.776 28 111.5 28C111.224 28 111 27.7761 111 27.5C111 27.2239 111.224 27 111.5 27C111.776 27 112 27.2239 112 27.5Z" fill="#35FEE0"/>
<path d="M118 27.5C118 27.7761 117.776 28 117.5 28C117.224 28 117 27.7761 117 27.5C117 27.2239 117.224 27 117.5 27C117.776 27 118 27.2239 118 27.5Z" fill="#35FEE0"/>
<path d="M94 27.5C94 27.7761 93.7761 28 93.5 28C93.2239 28 93 27.7761 93 27.5C93 27.2239 93.2239 27 93.5 27C93.7761 27 94 27.2239 94 27.5Z" fill="#35FEE0"/>
<path d="M88 27.5C88 27.7761 87.7761 28 87.5 28C87.2239 28 87 27.7761 87 27.5C87 27.2239 87.2239 27 87.5 27C87.7761 27 88 27.2239 88 27.5Z" fill="#35FEE0"/>
<path d="M82 27.5C82 27.7761 81.7761 28 81.5 28C81.2239 28 81 27.7761 81 27.5C81 27.2239 81.2239 27 81.5 27C81.7761 27 82 27.2239 82 27.5Z" fill="#35FEE0"/>
<path d="M76 27.5C76 27.7761 75.7761 28 75.5 28C75.2239 28 75 27.7761 75 27.5C75 27.2239 75.2239 27 75.5 27C75.7761 27 76 27.2239 76 27.5Z" fill="#35FEE0"/>
<path d="M70 27.5C70 27.7761 69.7761 28 69.5 28C69.2239 28 69 27.7761 69 27.5C69 27.2239 69.2239 27 69.5 27C69.7761 27 70 27.2239 70 27.5Z" fill="#35FEE0"/>
<path d="M64 27.5C64 27.7761 63.7761 28 63.5 28C63.2239 28 63 27.7761 63 27.5C63 27.2239 63.2239 27 63.5 27C63.7761 27 64 27.2239 64 27.5Z" fill="#35FEE0"/>
<path d="M100 33.5C100 33.7761 99.7761 34 99.5 34C99.2239 34 99 33.7761 99 33.5C99 33.2239 99.2239 33 99.5 33C99.7761 33 100 33.2239 100 33.5Z" fill="#35FEE0"/>
<path d="M106 33.5C106 33.7761 105.776 34 105.5 34C105.224 34 105 33.7761 105 33.5C105 33.2239 105.224 33 105.5 33C105.776 33 106 33.2239 106 33.5Z" fill="#35FEE0"/>
<path d="M112 33.5C112 33.7761 111.776 34 111.5 34C111.224 34 111 33.7761 111 33.5C111 33.2239 111.224 33 111.5 33C111.776 33 112 33.2239 112 33.5Z" fill="#35FEE0"/>
<path d="M118 33.5C118 33.7761 117.776 34 117.5 34C117.224 34 117 33.7761 117 33.5C117 33.2239 117.224 33 117.5 33C117.776 33 118 33.2239 118 33.5Z" fill="#35FEE0"/>
<path d="M94 33.5C94 33.7761 93.7761 34 93.5 34C93.2239 34 93 33.7761 93 33.5C93 33.2239 93.2239 33 93.5 33C93.7761 33 94 33.2239 94 33.5Z" fill="#35FEE0"/>
<path d="M88 33.5C88 33.7761 87.7761 34 87.5 34C87.2239 34 87 33.7761 87 33.5C87 33.2239 87.2239 33 87.5 33C87.7761 33 88 33.2239 88 33.5Z" fill="#35FEE0"/>
<path d="M82 33.5C82 33.7761 81.7761 34 81.5 34C81.2239 34 81 33.7761 81 33.5C81 33.2239 81.2239 33 81.5 33C81.7761 33 82 33.2239 82 33.5Z" fill="#35FEE0"/>
<path d="M76 33.5C76 33.7761 75.7761 34 75.5 34C75.2239 34 75 33.7761 75 33.5C75 33.2239 75.2239 33 75.5 33C75.7761 33 76 33.2239 76 33.5Z" fill="#35FEE0"/>
<path d="M70 33.5C70 33.7761 69.7761 34 69.5 34C69.2239 34 69 33.7761 69 33.5C69 33.2239 69.2239 33 69.5 33C69.7761 33 70 33.2239 70 33.5Z" fill="#35FEE0"/>
<path d="M64 33.5C64 33.7761 63.7761 34 63.5 34C63.2239 34 63 33.7761 63 33.5C63 33.2239 63.2239 33 63.5 33C63.7761 33 64 33.2239 64 33.5Z" fill="#35FEE0"/>
<path d="M100 39.5C100 39.7761 99.7761 40 99.5 40C99.2239 40 99 39.7761 99 39.5C99 39.2239 99.2239 39 99.5 39C99.7761 39 100 39.2239 100 39.5Z" fill="#35FEE0"/>
<path d="M106 39.5C106 39.7761 105.776 40 105.5 40C105.224 40 105 39.7761 105 39.5C105 39.2239 105.224 39 105.5 39C105.776 39 106 39.2239 106 39.5Z" fill="#35FEE0"/>
<path d="M112 39.5C112 39.7761 111.776 40 111.5 40C111.224 40 111 39.7761 111 39.5C111 39.2239 111.224 39 111.5 39C111.776 39 112 39.2239 112 39.5Z" fill="#35FEE0"/>
<path d="M118 39.5C118 39.7761 117.776 40 117.5 40C117.224 40 117 39.7761 117 39.5C117 39.2239 117.224 39 117.5 39C117.776 39 118 39.2239 118 39.5Z" fill="#35FEE0"/>
<path d="M94 39.5C94 39.7761 93.7761 40 93.5 40C93.2239 40 93 39.7761 93 39.5C93 39.2239 93.2239 39 93.5 39C93.7761 39 94 39.2239 94 39.5Z" fill="#35FEE0"/>
<path d="M88 39.5C88 39.7761 87.7761 40 87.5 40C87.2239 40 87 39.7761 87 39.5C87 39.2239 87.2239 39 87.5 39C87.7761 39 88 39.2239 88 39.5Z" fill="#35FEE0"/>
<path d="M82 39.5C82 39.7761 81.7761 40 81.5 40C81.2239 40 81 39.7761 81 39.5C81 39.2239 81.2239 39 81.5 39C81.7761 39 82 39.2239 82 39.5Z" fill="#35FEE0"/>
<path d="M76 39.5C76 39.7761 75.7761 40 75.5 40C75.2239 40 75 39.7761 75 39.5C75 39.2239 75.2239 39 75.5 39C75.7761 39 76 39.2239 76 39.5Z" fill="#35FEE0"/>
<path d="M70 39.5C70 39.7761 69.7761 40 69.5 40C69.2239 40 69 39.7761 69 39.5C69 39.2239 69.2239 39 69.5 39C69.7761 39 70 39.2239 70 39.5Z" fill="#35FEE0"/>
<path d="M64 39.5C64 39.7761 63.7761 40 63.5 40C63.2239 40 63 39.7761 63 39.5C63 39.2239 63.2239 39 63.5 39C63.7761 39 64 39.2239 64 39.5Z" fill="#35FEE0"/>
<path d="M100 45.5C100 45.7761 99.7761 46 99.5 46C99.2239 46 99 45.7761 99 45.5C99 45.2239 99.2239 45 99.5 45C99.7761 45 100 45.2239 100 45.5Z" fill="#35FEE0"/>
<path d="M106 45.5C106 45.7761 105.776 46 105.5 46C105.224 46 105 45.7761 105 45.5C105 45.2239 105.224 45 105.5 45C105.776 45 106 45.2239 106 45.5Z" fill="#35FEE0"/>
<path d="M112 45.5C112 45.7761 111.776 46 111.5 46C111.224 46 111 45.7761 111 45.5C111 45.2239 111.224 45 111.5 45C111.776 45 112 45.2239 112 45.5Z" fill="#35FEE0"/>
<path d="M118 45.5C118 45.7761 117.776 46 117.5 46C117.224 46 117 45.7761 117 45.5C117 45.2239 117.224 45 117.5 45C117.776 45 118 45.2239 118 45.5Z" fill="#35FEE0"/>
<path d="M94 45.5C94 45.7761 93.7761 46 93.5 46C93.2239 46 93 45.7761 93 45.5C93 45.2239 93.2239 45 93.5 45C93.7761 45 94 45.2239 94 45.5Z" fill="#35FEE0"/>
<path d="M88 45.5C88 45.7761 87.7761 46 87.5 46C87.2239 46 87 45.7761 87 45.5C87 45.2239 87.2239 45 87.5 45C87.7761 45 88 45.2239 88 45.5Z" fill="#35FEE0"/>
<path d="M82 45.5C82 45.7761 81.7761 46 81.5 46C81.2239 46 81 45.7761 81 45.5C81 45.2239 81.2239 45 81.5 45C81.7761 45 82 45.2239 82 45.5Z" fill="#35FEE0"/>
<path d="M76 45.5C76 45.7761 75.7761 46 75.5 46C75.2239 46 75 45.7761 75 45.5C75 45.2239 75.2239 45 75.5 45C75.7761 45 76 45.2239 76 45.5Z" fill="#35FEE0"/>
<path d="M70 45.5C70 45.7761 69.7761 46 69.5 46C69.2239 46 69 45.7761 69 45.5C69 45.2239 69.2239 45 69.5 45C69.7761 45 70 45.2239 70 45.5Z" fill="#35FEE0"/>
<path d="M64 45.5C64 45.7761 63.7761 46 63.5 46C63.2239 46 63 45.7761 63 45.5C63 45.2239 63.2239 45 63.5 45C63.7761 45 64 45.2239 64 45.5Z" fill="#35FEE0"/>
<path d="M97 36.5C97 36.7761 96.7761 37 96.5 37C96.2239 37 96 36.7761 96 36.5C96 36.2239 96.2239 36 96.5 36C96.7761 36 97 36.2239 97 36.5Z" fill="#35FEE0"/>
<path d="M103 36.5C103 36.7761 102.776 37 102.5 37C102.224 37 102 36.7761 102 36.5C102 36.2239 102.224 36 102.5 36C102.776 36 103 36.2239 103 36.5Z" fill="#35FEE0"/>
<path d="M109 36.5C109 36.7761 108.776 37 108.5 37C108.224 37 108 36.7761 108 36.5C108 36.2239 108.224 36 108.5 36C108.776 36 109 36.2239 109 36.5Z" fill="#35FEE0"/>
<path d="M115 36.5C115 36.7761 114.776 37 114.5 37C114.224 37 114 36.7761 114 36.5C114 36.2239 114.224 36 114.5 36C114.776 36 115 36.2239 115 36.5Z" fill="#35FEE0"/>
<path d="M91 36.5C91 36.7761 90.7761 37 90.5 37C90.2239 37 90 36.7761 90 36.5C90 36.2239 90.2239 36 90.5 36C90.7761 36 91 36.2239 91 36.5Z" fill="#35FEE0"/>
<path d="M85 36.5C85 36.7761 84.7761 37 84.5 37C84.2239 37 84 36.7761 84 36.5C84 36.2239 84.2239 36 84.5 36C84.7761 36 85 36.2239 85 36.5Z" fill="#35FEE0"/>
<path d="M79 36.5C79 36.7761 78.7761 37 78.5 37C78.2239 37 78 36.7761 78 36.5C78 36.2239 78.2239 36 78.5 36C78.7761 36 79 36.2239 79 36.5Z" fill="#35FEE0"/>
<path d="M73 36.5C73 36.7761 72.7761 37 72.5 37C72.2239 37 72 36.7761 72 36.5C72 36.2239 72.2239 36 72.5 36C72.7761 36 73 36.2239 73 36.5Z" fill="#35FEE0"/>
<path d="M67 36.5C67 36.7761 66.7761 37 66.5 37C66.2239 37 66 36.7761 66 36.5C66 36.2239 66.2239 36 66.5 36C66.7761 36 67 36.2239 67 36.5Z" fill="#35FEE0"/>
<path d="M61 36.5C61 36.7761 60.7761 37 60.5 37C60.2239 37 60 36.7761 60 36.5C60 36.2239 60.2239 36 60.5 36C60.7761 36 61 36.2239 61 36.5Z" fill="#35FEE0"/>
<path d="M97 42.5C97 42.7761 96.7761 43 96.5 43C96.2239 43 96 42.7761 96 42.5C96 42.2239 96.2239 42 96.5 42C96.7761 42 97 42.2239 97 42.5Z" fill="#35FEE0"/>
<path d="M103 42.5C103 42.7761 102.776 43 102.5 43C102.224 43 102 42.7761 102 42.5C102 42.2239 102.224 42 102.5 42C102.776 42 103 42.2239 103 42.5Z" fill="#35FEE0"/>
<path d="M109 42.5C109 42.7761 108.776 43 108.5 43C108.224 43 108 42.7761 108 42.5C108 42.2239 108.224 42 108.5 42C108.776 42 109 42.2239 109 42.5Z" fill="#35FEE0"/>
<path d="M115 42.5C115 42.7761 114.776 43 114.5 43C114.224 43 114 42.7761 114 42.5C114 42.2239 114.224 42 114.5 42C114.776 42 115 42.2239 115 42.5Z" fill="#35FEE0"/>
<path d="M91 42.5C91 42.7761 90.7761 43 90.5 43C90.2239 43 90 42.7761 90 42.5C90 42.2239 90.2239 42 90.5 42C90.7761 42 91 42.2239 91 42.5Z" fill="#35FEE0"/>
<path d="M85 42.5C85 42.7761 84.7761 43 84.5 43C84.2239 43 84 42.7761 84 42.5C84 42.2239 84.2239 42 84.5 42C84.7761 42 85 42.2239 85 42.5Z" fill="#35FEE0"/>
<path d="M79 42.5C79 42.7761 78.7761 43 78.5 43C78.2239 43 78 42.7761 78 42.5C78 42.2239 78.2239 42 78.5 42C78.7761 42 79 42.2239 79 42.5Z" fill="#35FEE0"/>
<path d="M73 42.5C73 42.7761 72.7761 43 72.5 43C72.2239 43 72 42.7761 72 42.5C72 42.2239 72.2239 42 72.5 42C72.7761 42 73 42.2239 73 42.5Z" fill="#35FEE0"/>
<path d="M67 42.5C67 42.7761 66.7761 43 66.5 43C66.2239 43 66 42.7761 66 42.5C66 42.2239 66.2239 42 66.5 42C66.7761 42 67 42.2239 67 42.5Z" fill="#35FEE0"/>
<path d="M61 42.5C61 42.7761 60.7761 43 60.5 43C60.2239 43 60 42.7761 60 42.5C60 42.2239 60.2239 42 60.5 42C60.7761 42 61 42.2239 61 42.5Z" fill="#35FEE0"/>
<path d="M97 48.5C97 48.7761 96.7761 49 96.5 49C96.2239 49 96 48.7761 96 48.5C96 48.2239 96.2239 48 96.5 48C96.7761 48 97 48.2239 97 48.5Z" fill="#35FEE0"/>
<path d="M103 48.5C103 48.7761 102.776 49 102.5 49C102.224 49 102 48.7761 102 48.5C102 48.2239 102.224 48 102.5 48C102.776 48 103 48.2239 103 48.5Z" fill="#35FEE0"/>
<path d="M109 48.5C109 48.7761 108.776 49 108.5 49C108.224 49 108 48.7761 108 48.5C108 48.2239 108.224 48 108.5 48C108.776 48 109 48.2239 109 48.5Z" fill="#35FEE0"/>
<path d="M115 48.5C115 48.7761 114.776 49 114.5 49C114.224 49 114 48.7761 114 48.5C114 48.2239 114.224 48 114.5 48C114.776 48 115 48.2239 115 48.5Z" fill="#35FEE0"/>
<path d="M91 48.5C91 48.7761 90.7761 49 90.5 49C90.2239 49 90 48.7761 90 48.5C90 48.2239 90.2239 48 90.5 48C90.7761 48 91 48.2239 91 48.5Z" fill="#35FEE0"/>
<path d="M85 48.5C85 48.7761 84.7761 49 84.5 49C84.2239 49 84 48.7761 84 48.5C84 48.2239 84.2239 48 84.5 48C84.7761 48 85 48.2239 85 48.5Z" fill="#35FEE0"/>
<path d="M79 48.5C79 48.7761 78.7761 49 78.5 49C78.2239 49 78 48.7761 78 48.5C78 48.2239 78.2239 48 78.5 48C78.7761 48 79 48.2239 79 48.5Z" fill="#35FEE0"/>
<path d="M73 48.5C73 48.7761 72.7761 49 72.5 49C72.2239 49 72 48.7761 72 48.5C72 48.2239 72.2239 48 72.5 48C72.7761 48 73 48.2239 73 48.5Z" fill="#35FEE0"/>
<path d="M67 48.5C67 48.7761 66.7761 49 66.5 49C66.2239 49 66 48.7761 66 48.5C66 48.2239 66.2239 48 66.5 48C66.7761 48 67 48.2239 67 48.5Z" fill="#35FEE0"/>
<path d="M61 48.5C61 48.7761 60.7761 49 60.5 49C60.2239 49 60 48.7761 60 48.5C60 48.2239 60.2239 48 60.5 48C60.7761 48 61 48.2239 61 48.5Z" fill="#35FEE0"/>
</svg>
