<svg width="170" height="79" viewBox="0 0 170 79" fill="none" xmlns="http://www.w3.org/2000/svg">
<path d="M13.5 79L13.5 65.5M13.5 65.5V52.5M13.5 65.5H0M13.5 65.5H26.5M13.5 52.5L13.5 39.5M13.5 52.5H0M13.5 52.5H26.5M13.5 39.5L13.5 26.5M13.5 39.5H0M13.5 39.5H26.5M13.5 26.5V13.5M13.5 26.5H0M13.5 26.5H26.5M13.5 13.5L13.5 0M13.5 13.5H0M13.5 13.5H26.5M26.5 79V65.5M26.5 65.5L26.5 52.5M26.5 65.5H39.5M26.5 52.5V39.5M26.5 52.5H39.5M26.5 39.5V26.5M26.5 39.5H39.5M26.5 26.5L26.5 13.5M26.5 26.5H39.5M26.5 13.5V0M26.5 13.5H39.5M39.5 79V65.5M39.5 65.5V52.5M39.5 65.5H52.5M39.5 52.5V39.5M39.5 52.5H52.5M39.5 39.5L39.5 26.5M39.5 39.5H52.5M39.5 26.5V13.5M39.5 26.5H52.5M39.5 13.5V0M39.5 13.5H52.5M52.5 79V65.5M52.5 65.5V52.5M52.5 65.5H65.5M52.5 52.5V39.5M52.5 52.5H65.5M52.5 39.5L52.5 26.5M52.5 39.5H65.5M52.5 26.5V13.5M52.5 26.5H65.5M52.5 13.5V0M52.5 13.5H65.5M65.5 79V65.5M65.5 65.5V52.5M65.5 65.5H78.5M65.5 52.5V39.5M65.5 52.5H78.5M65.5 39.5V26.5M65.5 39.5H78.5M65.5 26.5V13.5M65.5 26.5H78.5M65.5 13.5V0M65.5 13.5H78.5M78.5 79V65.5M78.5 65.5V52.5M78.5 65.5H91.5M78.5 52.5V39.5M78.5 52.5H91.5M78.5 39.5V26.5M78.5 39.5H91.5M78.5 26.5V13.5M78.5 26.5H91.5M78.5 13.5V0M78.5 13.5H91.5M91.5 79V65.5M91.5 65.5V52.5M91.5 65.5H104.5M91.5 52.5V39.5M91.5 52.5H104.5M91.5 39.5V26.5M91.5 39.5H104.5M91.5 26.5V13.5M91.5 26.5H104.5M91.5 13.5V0M91.5 13.5H104.5M104.5 79V65.5M104.5 65.5V52.5M104.5 65.5H117.5M104.5 52.5V39.5M104.5 52.5H117.5M104.5 39.5V26.5M104.5 39.5H117.5M104.5 26.5V13.5M104.5 26.5H117.5M104.5 13.5V0M104.5 13.5H117.5M117.5 79V65.5M117.5 65.5V52.5M117.5 65.5H130.5M117.5 52.5V39.5M117.5 52.5H130.5M117.5 39.5V26.5M117.5 39.5H130.5M117.5 26.5V13.5M117.5 26.5H130.5M117.5 13.5V0M117.5 13.5H130.5M130.5 79V65.5M130.5 65.5V52.5M130.5 65.5H143.5M130.5 52.5V39.5M130.5 52.5H143.5M130.5 39.5V26.5M130.5 39.5H143.5M130.5 26.5V13.5M130.5 26.5H143.5M130.5 13.5V0M130.5 13.5H143.5M143.5 79V65.5M143.5 65.5V52.5M143.5 65.5H156.5M143.5 52.5V39.5M143.5 52.5H156.5M143.5 39.5V26.5M143.5 39.5H156.5M143.5 26.5V13.5M143.5 26.5H156.5M143.5 13.5V0M143.5 13.5H156.5M156.5 79V65.5M156.5 65.5V52.5M156.5 65.5H170M156.5 52.5V39.5M156.5 52.5H170M156.5 39.5V26.5M156.5 39.5H170M156.5 26.5V13.5M156.5 26.5H170M156.5 13.5V0M156.5 13.5H170M0.5 1L0.499997 79M0 0.5H170" stroke="#373737"/>
</svg>
