<svg width="170" height="79" viewBox="0 0 170 79" fill="none" xmlns="http://www.w3.org/2000/svg">
<path fill-rule="evenodd" clip-rule="evenodd" d="M170 79H0V0H170V79ZM1 78H13V66H1V78ZM14 78H26V66H14V78ZM27 78H39V66H27V78ZM40 78H52V66H40V78ZM53 78H65V66H53V78ZM66 78H78V66H66V78ZM79 78H91V66H79V78ZM92 78H104V66H92V78ZM105 78H117V66H105V78ZM118 78H130V66H118V78ZM131 78H143V66H131V78ZM144 78H156V66H144V78ZM157 78H169V66H157V78ZM1 65H13V53H1V65ZM14 65H26V53H14V65ZM27 65H39V53H27V65ZM40 65H52V53H40V65ZM53 65H65V53H53V65ZM66 65H78V53H66V65ZM79 65H91V53H79V65ZM92 65H104V53H92V65ZM105 65H117V53H105V65ZM118 65H130V53H118V65ZM131 65H143V53H131V65ZM144 65H156V53H144V65ZM157 65H169V53H157V65ZM1 52H13V40H1V52ZM14 52H26V40H14V52ZM27 52H39V40H27V52ZM40 52H52V40H40V52ZM53 52H65V40H53V52ZM66 52H78V40H66V52ZM79 52H91V40H79V52ZM92 52H104V40H92V52ZM105 52H117V40H105V52ZM118 52H130V40H118V52ZM131 52H143V40H131V52ZM144 52H156V40H144V52ZM157 52H169V40H157V52ZM1 39H13V27H1V39ZM14 39H26V27H14V39ZM27 39H39V27H27V39ZM40 39H52V27H40V39ZM53 39H65V27H53V39ZM66 39H78V27H66V39ZM79 39H91V27H79V39ZM92 39H104V27H92V39ZM105 39H117V27H105V39ZM118 39H130V27H118V39ZM131 39H143V27H131V39ZM144 39H156V27H144V39ZM157 39H169V27H157V39ZM1 26H13V14H1V26ZM14 26H26V14H14V26ZM27 26H39V14H27V26ZM40 26H52V14H40V26ZM53 26H65V14H53V26ZM66 26H78V14H66V26ZM79 26H91V14H79V26ZM92 26H104V14H92V26ZM105 26H117V14H105V26ZM118 26H130V14H118V26ZM131 26H143V14H131V26ZM144 26H156V14H144V26ZM157 26H169V14H157V26ZM1 13H13V1H1V13ZM14 13H26V1H14V13ZM27 13H39V1H27V13ZM40 13H52V1H40V13ZM53 13H65V1H53V13ZM66 13H78V1H66V13ZM79 13H91V1H79V13ZM92 13H104V1H92V13ZM105 13H117V1H105V13ZM118 13H130V1H118V13ZM131 13H143V1H131V13ZM144 13H156V1H144V13ZM157 13H169V1H157V13Z" fill="#35FEE0"/>
</svg>
