<svg width="189" height="53" viewBox="0 0 189 53" fill="none" xmlns="http://www.w3.org/2000/svg">
<path d="M53.707 0.353516L1.06055 53H0.353516L0 52.6465L52.6465 0H53.3535L53.707 0.353516Z" fill="#373737"/>
<path d="M62.707 0.353516L10.0605 53H9.35352L9 52.6465L61.6465 0H62.3535L62.707 0.353516Z" fill="#373737"/>
<path d="M71.707 0.353516L19.0605 53H18.3535L18 52.6465L70.6465 0H71.3535L71.707 0.353516Z" fill="#373737"/>
<path d="M80.707 0.353516L28.0605 53H27.3535L27 52.6465L79.6465 0H80.3535L80.707 0.353516Z" fill="#373737"/>
<path d="M89.707 0.353516L37.0605 53H36.3535L36 52.6465L88.6465 0H89.3535L89.707 0.353516Z" fill="#373737"/>
<path d="M98.707 0.353516L46.0605 53H45.3535L45 52.6465L97.6465 0H98.3535L98.707 0.353516Z" fill="#373737"/>
<path d="M107.707 0.353516L55.0605 53H54.3535L54 52.6465L106.646 0H107.354L107.707 0.353516Z" fill="#373737"/>
<path d="M116.707 0.353516L64.0605 53H63.3535L63 52.6465L115.646 0H116.354L116.707 0.353516Z" fill="#373737"/>
<path d="M125.707 0.353516L73.0605 53H72.3535L72 52.6465L124.646 0H125.354L125.707 0.353516Z" fill="#373737"/>
<path d="M134.707 0.353516L82.0605 53H81.3535L81 52.6465L133.646 0H134.354L134.707 0.353516Z" fill="#373737"/>
<path d="M143.707 0.353516L91.0605 53H90.3535L90 52.6465L142.646 0H143.354L143.707 0.353516Z" fill="#373737"/>
<path d="M152.707 0.353516L100.061 53H99.3535L99 52.6465L151.646 0H152.354L152.707 0.353516Z" fill="#373737"/>
<path d="M161.707 0.353516L109.061 53H108.354L108 52.6465L160.646 0H161.354L161.707 0.353516Z" fill="#373737"/>
<path d="M170.707 0.353516L118.061 53H117.354L117 52.6465L169.646 0H170.354L170.707 0.353516Z" fill="#373737"/>
<path d="M179.707 0.353516L127.061 53H126.354L126 52.6465L178.646 0H179.354L179.707 0.353516Z" fill="#373737"/>
<path d="M188.707 0.353516L136.061 53H135.354L135 52.6465L187.646 0H188.354L188.707 0.353516Z" fill="#373737"/>
<path d="M189 9.06055L145.061 53H144.354L144 52.6465L189 7.64648V9.06055Z" fill="#373737"/>
<path d="M189 18.0605L154.061 53H153.354L153 52.6465L189 16.6465V18.0605Z" fill="#373737"/>
<path d="M189 27.0605L163.061 53H162.354L162 52.6465L189 25.6465V27.0605Z" fill="#373737"/>
<path d="M189 36.0605L172.061 53H171.354L171 52.6465L189 34.6465V36.0605Z" fill="#373737"/>
<path d="M189 45.0605L181.061 53H180.354L180 52.6465L189 43.6465V45.0605Z" fill="#373737"/>
<path d="M44.707 0.353516L0 45.0605V43.6465L43.6465 0H44.3535L44.707 0.353516Z" fill="#373737"/>
<path d="M35.707 0.353516L0 36.0605V34.6465L34.6465 0H35.3535L35.707 0.353516Z" fill="#373737"/>
<path d="M26.707 0.353516L0 27.0605V25.6465L25.6465 0H26.3535L26.707 0.353516Z" fill="#373737"/>
<path d="M17.707 0.353516L0 18.0605V16.6465L16.6465 0H17.3535L17.707 0.353516Z" fill="#373737"/>
<path d="M8.70703 0.353516L0 9.06055V7.64648L7.64648 0H8.35352L8.70703 0.353516Z" fill="#373737"/>
</svg>
