<svg width="41" height="48" viewBox="0 0 41 48" fill="none" xmlns="http://www.w3.org/2000/svg">
<path d="M16.7788 18.4752C17.4338 11.6321 20.4557 -0.584241 29.5476 0.0217241C31.9521 0.181976 34.2626 1.81925 35.7213 3.66919C40.854 10.322 41.4992 21.4811 40.7309 29.5276C40.2088 34.9988 38.3926 42.4868 33.9636 46.0883C32.2233 47.5037 30.0746 48.2086 27.8335 47.9458C25.3382 47.6536 23.2302 46.1756 21.7179 44.2203C18.4696 40.0202 17.1347 33.8874 16.7166 28.6999C16.0372 33.5273 13.6144 40.2089 7.52356 39.3779C5.74851 39.1359 4.19698 37.9933 3.17279 36.5629C-0.181517 31.8843 -0.423785 24.2949 0.39514 18.8192C0.863616 15.6868 2.21392 11.6464 4.83791 9.73531C6.20057 8.73108 7.91165 8.3236 9.57969 8.60603C14.1176 9.33757 15.927 14.7649 16.6284 18.6899L16.7788 18.4752Z" fill="#FEFEFE"/>
</svg>
