<svg width="55" height="48" viewBox="0 0 55 48" fill="none" xmlns="http://www.w3.org/2000/svg">
<path fill-rule="evenodd" clip-rule="evenodd" d="M24.6221 0.0279367C39.2825 -0.595195 53.6201 9.25475 54.9211 24.6848C56.1306 39.0335 43.2245 46.9114 30.5246 47.8329C30.0674 47.8679 29.61 47.899 29.1524 47.9261C14.4732 48.7646 1.17181 42.5236 0.0703151 26.3255C-0.528442 17.5205 2.6912 10.0284 9.9427 4.95989C14.5781 1.72005 19.0272 0.321897 24.6221 0.0279367ZM27.4449 8.21691C25.5955 6.93558 22.9418 5.88328 20.6656 6.22353C14.2947 7.07836 13.4281 14.2736 14.2802 19.4428C15.4488 26.5322 19.2141 33.9091 25.024 38.2557C27.4312 40.049 30.1175 41.0182 33.1034 40.59C39.7565 39.3228 40.5594 33.0023 39.3834 27.3211C37.8729 20.0243 33.5567 12.5734 27.4449 8.21691Z" fill="#FEFEFE"/>
</svg>
