<svg width="72" height="48" viewBox="0 0 72 48" fill="none" xmlns="http://www.w3.org/2000/svg">
<path d="M60.1244 20.9999C57.0452 20.9999 55.1208 17.6666 56.6604 14.9999L62.5982 4.71534L57.402 1.71533L51.4642 11.9999C49.9246 14.6666 46.0756 14.6666 44.536 11.9999L38.5982 1.71533L33.402 4.71534L39.3398 14.9999C40.8794 17.6666 38.955 20.9999 35.8758 20.9999H24V26.9999H35.8758C38.955 26.9999 40.8794 30.3333 39.3398 32.9999L33.402 43.2845L38.5982 46.2845L44.536 35.9999C46.0756 33.3333 49.9246 33.3333 51.4642 35.9999L57.402 46.2845L62.5982 43.2845L56.6604 32.9999C55.1208 30.3333 57.0452 26.9999 60.1244 26.9999H72V20.9999H60.1244Z" fill="white"/>
<path d="M13.4572 0L0 48H7.12154L20.5786 0H13.4572Z" fill="#ABABAB"/>
</svg>
