<svg width="48" height="48" viewBox="0 0 48 48" fill="none" xmlns="http://www.w3.org/2000/svg">
<path d="M2.30027 0H45.3478C45.7089 0.382525 46.3677 0.486207 46.7154 0.816346C48.0703 2.10304 47.9964 4.23281 47.9973 5.94714L47.994 17.891C47.994 18.846 48.0449 23.8416 47.8504 24.4391C47.7534 28.9724 47.8283 33.7555 47.8288 38.302L47.8273 41.9722C47.8264 42.8676 47.8914 44.9215 47.5293 45.6668C47.3405 46.1425 47.1348 46.6556 46.7392 47.0035C46.2595 47.4254 45.246 47.8303 44.6218 47.8985C43.8168 47.9859 42.8925 47.9619 42.0762 47.9619L6.56342 47.9718C4.60943 47.9727 1.75836 48.3386 0.586484 46.4072C0.470811 46.2165 0.117172 45.6239 0 45.5011V2.22371C0.40641 1.96518 0.896123 1.062 1.31973 0.709828C1.69051 0.401568 2.0969 0.390816 2.30027 0ZM23.5351 23.9791L24.0033 23.9738C23.9111 21.5697 23.9831 18.6903 23.9836 16.2515L23.9628 1.27475C23.933 1.22179 23.8881 1.15584 23.8543 1.10326C23.7764 1.09092 23.7039 1.07296 23.6267 1.08473C23.559 1.44549 23.5628 2.25717 23.5579 2.6514L23.5261 5.03811C23.4705 8.93026 23.5152 12.9098 23.5121 16.8111L23.5026 21.6151C23.5008 22.0982 23.4681 23.6131 23.5351 23.9791Z" fill="#373737"/>
<path d="M23.6267 1.08473C23.7039 1.07296 23.7764 1.09092 23.8543 1.10326C23.8881 1.15584 23.933 1.22179 23.9628 1.27475L23.9836 16.2515C23.9831 18.6903 23.9111 21.5697 24.0033 23.9738L23.5351 23.9791C23.4681 23.6131 23.5008 22.0982 23.5026 21.6151L23.5121 16.8111C23.5152 12.9098 23.4705 8.93026 23.5261 5.03811L23.5579 2.6514C23.5628 2.25717 23.559 1.44549 23.6267 1.08473Z" fill="#373737"/>
<path d="M1.0709 2.11098C1.29172 1.6017 1.58285 1.28429 2.10208 1.06639C4.14268 1.15668 6.31231 1.14891 8.3582 1.12447C13.428 1.0639 18.5638 1.22937 23.6267 1.08473C23.559 1.44549 23.5628 2.25717 23.5579 2.6514L23.5261 5.03811C23.4705 8.93026 23.5152 12.9098 23.5121 16.8111L23.5026 21.6151C23.5008 22.0982 23.4681 23.6131 23.5351 23.9791L14.7921 23.9813C14.7567 23.6948 14.7749 22.7785 14.7748 22.4531L14.7757 19.3697C14.7769 15.6785 14.8274 11.8524 14.7455 8.17225C16.2037 8.16801 18.9902 8.21823 20.3821 8.07477C20.5072 7.98003 20.4721 7.96574 20.5105 7.76351C20.5071 6.53324 20.5563 5.38859 20.5068 4.13696C16.8055 4.02579 13.0567 4.14697 9.34986 4.10267C7.63109 4.08213 5.87074 4.09208 4.15405 4.14703C4.04678 4.62022 4.07297 7.17806 4.1347 7.73308C4.1598 7.88331 4.15936 8.01097 4.26412 8.1099C4.66552 8.16924 5.757 8.14893 6.20398 8.15099L9.85273 8.17493C9.742 9.23908 9.80023 11.3581 9.79953 12.5162L9.79694 20.6368C9.7951 21.3641 9.79953 22.0914 9.81022 22.8186C9.81408 23.0529 9.84256 23.8162 9.8185 23.9814L1.10603 23.9815C1.15285 22.9872 1.12389 21.7761 1.12425 20.7648L1.12537 15.065C1.12569 10.8156 1.19401 6.34469 1.0709 2.11098Z" fill="#D9D9D9"/>
<path d="M24.0033 23.9738L27.3067 23.9822L27.3086 33.546C27.308 36.0563 26.9069 40.1652 28.7703 42.152C29.3309 42.7498 30.5751 43.4474 31.3727 43.6849C33.1932 43.6501 35.014 43.637 36.8348 43.6456C37.4261 43.6469 38.1728 43.6203 38.7481 43.6423C40.457 43.4366 41.8753 42.1767 42.7107 40.7466C43.7723 38.9291 43.7142 37.3535 43.6837 35.3381C43.6261 35.142 43.6547 34.8195 43.5911 34.7214L43.3949 34.8026C43.3257 34.6023 43.2503 34.1089 43.2769 33.8977C43.246 33.519 43.2218 33.1734 43.153 32.7983C43.0985 32.4035 43.0516 32.0623 43.0287 31.6652L42.9593 31.6101C42.8633 31.7012 42.8221 31.9886 42.7894 32.1355L42.7475 32.1504C42.6257 31.7859 42.6409 31.514 42.4053 31.1437C40.7659 28.5674 37.5817 28.5803 34.9685 28.5863L32.005 28.5943C31.7823 28.5946 31.0678 28.6247 30.9359 28.5165L30.9284 28.324C30.95 27.9216 30.92 27.4496 30.9363 27.0364C30.9763 26.0191 30.9852 24.9966 31.0212 23.98L41.5186 23.9793C43.2017 23.9792 45.3841 23.9176 47.03 23.9961C46.9902 25.9111 47.0224 27.9066 47.0235 29.8305L47.0253 40.0992C47.0261 41.7036 47.0682 43.4211 47.0281 45.0102C46.8246 46.1128 45.9898 47.0338 44.8507 47.1386C43.9169 47.2247 43.0566 47.22 42.123 47.2195L38.1477 47.2162L24.0193 47.22C23.9601 46.0319 23.9922 44.6284 23.9926 43.4218L23.9949 28.544C23.995 27.0477 23.9645 25.4608 24.0033 23.9738Z" fill="#D9D9D9"/>
<path d="M31.3727 43.6849C33.1932 43.6501 35.014 43.637 36.8348 43.6456C37.4261 43.6469 38.1728 43.6203 38.7481 43.6423C38.7399 43.8293 38.7656 43.9372 38.6777 44.0785C37.7748 44.3092 33.3836 44.2105 32.2432 44.1023C32.1188 44.0905 31.8716 43.9759 31.7569 43.9112C31.6354 43.8426 31.5011 43.7323 31.3727 43.6849Z" fill="#373737"/>
<path d="M43.4407 32.7653L43.5429 32.7661C43.6527 32.973 43.6961 35.0168 43.6837 35.3381C43.6261 35.142 43.6547 34.8195 43.5911 34.7214L43.3949 34.8026C43.3257 34.6023 43.2503 34.1089 43.2769 33.8977C43.246 33.519 43.2218 33.1734 43.153 32.7983L43.4407 32.7653Z" fill="#373737"/>
<path d="M43.153 32.7983L43.4407 32.7653C43.4292 33.0448 43.4404 33.6945 43.2769 33.8977C43.246 33.519 43.2218 33.1734 43.153 32.7983Z" fill="#373737"/>
<path d="M47.1602 23.9762C47.3047 23.961 47.3706 23.9408 47.4958 24.0208C47.631 24.2014 47.5858 24.3293 47.6682 24.5615L47.6493 24.5587C47.7091 24.5162 47.7369 24.4374 47.7708 24.374L47.8282 24.389L47.8504 24.4391C47.7534 28.9724 47.8283 33.7555 47.8288 38.302L47.8273 41.9722C47.8264 42.8676 47.8914 44.9215 47.5293 45.6668C47.4314 45.5098 47.6587 45.1922 47.6743 44.9729C47.7091 44.4764 47.8047 41.9615 47.7185 41.619C47.7091 42.0143 47.7054 42.4456 47.7086 42.8368C47.7105 43.0307 47.5853 44.2353 47.5166 44.3255L47.4662 44.31C47.4624 44.1911 47.429 43.2209 47.4403 43.1742C47.3391 41.901 47.4097 39.4977 47.4097 38.1443L47.4092 28.3835C47.4092 27.029 47.4054 25.6727 47.4313 24.3184C47.4342 24.1905 47.4017 24.1617 47.3169 24.0884C46.8876 24.1601 47.1969 25.0768 47.227 25.337C47.3325 26.2593 47.2986 27.1999 47.2934 28.1274L47.2906 31.0263C47.2896 34.2311 47.2915 37.4404 47.2943 40.6456C47.2948 41.1518 47.1776 41.5309 47.162 41.9798C47.1333 42.8279 47.1554 43.7011 47.139 44.554C47.2035 44.4957 47.2185 44.4825 47.2717 44.415C47.2214 44.6923 47.1662 44.773 47.0281 45.0102C47.0682 43.4211 47.0261 41.7036 47.0253 40.0992L47.0235 29.8305C47.0224 27.9066 46.9902 25.9111 47.03 23.9961L47.1602 23.9762Z" fill="#373737"/>
<path d="M47.1602 23.9762C47.3047 23.961 47.3706 23.9408 47.4958 24.0208C47.631 24.2014 47.5858 24.3293 47.6682 24.5615L47.6493 24.5587C47.7091 24.5162 47.7369 24.4374 47.7708 24.374L47.8282 24.389L47.8504 24.4391C47.7534 28.9724 47.8283 33.7555 47.8288 38.302L47.8273 41.9722C47.8264 42.8676 47.8914 44.9215 47.5293 45.6668C47.4314 45.5098 47.6587 45.1922 47.6743 44.9729C47.7091 44.4764 47.8047 41.9615 47.7185 41.619C47.7091 42.0143 47.7054 42.4456 47.7086 42.8368C47.7105 43.0307 47.5853 44.2353 47.5166 44.3255L47.4662 44.31C47.4624 44.1911 47.429 43.2209 47.4403 43.1742C47.5839 42.8552 47.5402 39.1809 47.5402 38.6117L47.5383 27.2437C47.5393 26.359 47.5652 25.0333 47.4743 24.1695C47.3571 24.0195 47.3631 24.0562 47.1602 23.9762Z" fill="#373737"/>
<path d="M1.0709 2.11098C1.19401 6.34469 1.12569 10.8156 1.12537 15.065L1.12425 20.7648C1.12389 21.7761 1.15285 22.9872 1.10603 23.9815L0.567414 23.9837L0.565159 5.80623C0.565173 4.73926 0.537555 3.59872 0.662644 2.54504C0.650031 2.39153 0.659937 2.36018 0.694047 2.21464C0.795477 2.22886 0.816047 2.28422 0.901027 2.37362L1.02916 2.34251L1.0709 2.11098Z" fill="#373737"/>
<path d="M0.662644 2.54504C0.650031 2.39153 0.659937 2.36018 0.694047 2.21464C0.795477 2.22886 0.816047 2.28422 0.901027 2.37362L1.02916 2.34251C1.06271 2.69067 1.04795 3.00938 0.948209 3.3449C0.885658 3.09098 0.846082 2.65064 0.777721 2.49614L0.725767 2.48262L0.662644 2.54504Z" fill="#373737"/>
<path d="M2.10208 1.06639C2.3964 0.943101 2.54157 0.661852 2.92062 0.628261C3.9643 0.535768 5.01882 0.563209 6.06627 0.563454L19.1194 0.564582C20.6631 0.564624 22.4298 0.520849 23.9543 0.627476C23.9563 0.840682 23.9551 1.06243 23.9628 1.27475C23.933 1.22179 23.8881 1.15584 23.8543 1.10326C23.7764 1.09092 23.7039 1.07296 23.6267 1.08473C18.5638 1.22937 13.428 1.0639 8.3582 1.12447C6.31231 1.14891 4.14268 1.15668 2.10208 1.06639Z" fill="#373737"/>
<path d="M9.85273 8.17493L10.3596 8.18273L10.3593 23.9839L9.8185 23.9814C9.84256 23.8162 9.81408 23.0529 9.81022 22.8186C9.79953 22.0914 9.7951 21.3641 9.79694 20.6368L9.79953 12.5162C9.80023 11.3581 9.742 9.23908 9.85273 8.17493Z" fill="#373737"/>
<path d="M14.2223 8.17715L14.7455 8.17225C14.8274 11.8524 14.7769 15.6785 14.7757 19.3697L14.7748 22.4531C14.7749 22.7785 14.7567 23.6948 14.7921 23.9813L14.2198 23.9814L14.2223 8.17715Z" fill="#373737"/>
<path d="M4.1347 7.73308C4.27243 7.74954 5.43123 7.67567 5.72605 7.67252L10.3589 7.65084L10.3596 8.18273L9.85273 8.17493L6.20398 8.15099C5.757 8.14893 4.66552 8.16924 4.26412 8.1099C4.15936 8.01097 4.1598 7.88331 4.1347 7.73308Z" fill="#373737"/>
<path d="M14.2145 7.65801L17.6579 7.66022C18.2383 7.66384 18.9325 7.67771 19.5155 7.73549C19.6228 7.74612 19.8883 7.93589 19.9919 8.00854C20.1811 8.00633 20.3255 7.87475 20.5105 7.76351C20.4721 7.96574 20.5072 7.98003 20.3821 8.07477C18.9902 8.21823 16.2037 8.16801 14.7455 8.17225L14.2223 8.17715L14.2145 7.65801Z" fill="#373737"/>
<path d="M30.9284 28.324C30.8221 27.674 30.8721 26.9998 30.6787 26.3049C30.5858 25.9712 30.5685 24.3684 30.617 24.0296C30.7423 23.9473 30.8455 23.9796 31.0212 23.98C30.9852 24.9966 30.9763 26.0191 30.9363 27.0364C30.92 27.4496 30.95 27.9216 30.9284 28.324Z" fill="#373737"/>
<path d="M30.9336 37.906C30.8889 37.7604 30.8942 37.4778 30.8688 37.3119C30.8315 37.0674 30.6761 36.4049 30.6716 36.2014C30.6579 35.5821 30.5202 32.6056 30.6301 32.2025C30.7357 32.1341 30.8765 32.1598 31.0114 32.1652L35.086 32.1546C35.5123 32.1543 36.006 32.1561 36.4223 32.1538C39.5483 32.1209 40.0497 33.7888 40.0265 36.4898C39.991 40.6271 37.5263 40.394 34.2138 40.3446C32.4785 40.3186 31.1466 39.8378 30.9336 37.906Z" fill="#D9D9D9"/>
<path d="M30.9336 37.906C30.8889 37.7604 30.8942 37.4778 30.8688 37.3119C30.8315 37.0674 30.6761 36.4049 30.6716 36.2014C30.6579 35.5821 30.5202 32.6056 30.6301 32.2025C30.7357 32.1341 30.8765 32.1598 31.0114 32.1652C30.8931 33.9518 31.0073 36.0857 30.9336 37.906Z" fill="#373737"/>
</svg>
