<svg width="48" height="48" viewBox="0 0 48 48" fill="none" xmlns="http://www.w3.org/2000/svg">
<path d="M0.0098393 36.0028L47.9836 35.9944L47.984 47.9942L0.0151813 48L0.0098393 36.0028Z" fill="white"/>
<path d="M0.00191484 0C5.84777 0.101878 11.95 0.0133079 17.8123 0.0134016L47.979 0.00103111C47.9257 3.85046 48.0929 7.99953 47.9175 11.8081C46.4441 11.8762 44.3094 11.7876 42.7814 11.7848L0.0426774 11.7995C-0.0515924 7.9388 0.046426 3.89508 0.00191484 0Z" fill="white"/>
<path d="M40.1871 17.8753L40.2477 17.918C40.026 18.3288 26.966 29.333 26.105 29.875C25.0484 29.958 23.4577 29.9095 22.3599 29.9076L11.158 29.907C10.2375 29.907 8.87692 29.9508 7.99485 29.8187L7.82365 29.7604C7.91614 29.4675 12.4491 25.7938 13.0278 25.3099L18.2083 20.9594C18.8364 20.4287 21.4009 18.072 22.093 17.9986C23.5367 17.8457 25.5206 17.9101 27.0186 17.9116L35.1953 17.9218C36.7838 17.9239 38.634 17.9747 40.1871 17.8753Z" fill="white"/>
</svg>
